<svg width="15" height="9" viewBox="0 0 15 9" xmlns="http://www.w3.org/2000/svg">
<path fill-rule="evenodd" clip-rule="evenodd" d="M1.56946 0.51192C1.29989 0.197426 0.826414 0.161005 0.51192 0.430571C0.197426 0.700138 0.161005 1.17361 0.430571 1.48811L3.01221 4.50001L0.430571 7.51192C0.161005 7.82641 0.197426 8.29989 0.51192 8.56946C0.826414 8.83902 1.29989 8.8026 1.56946 8.48811L4.56946 4.98811C4.8102 4.70724 4.8102 4.29279 4.56946 4.01192L1.56946 0.51192ZM9.00001 4.25001C8.5858 4.25001 8.25001 4.5858 8.25001 5.00001C8.25001 5.41423 8.5858 5.75001 9.00001 5.75001H14C14.4142 5.75001 14.75 5.41423 14.75 5.00001C14.75 4.5858 14.4142 4.25001 14 4.25001H9.00001Z" />
</svg>
