<svg width="17" height="17" viewBox="0 0 17 17" xmlns="http://www.w3.org/2000/svg">
<path d="M5.19853 7.14354L8.4999 3.84226L11.803 7.14529L13.724 5.22429L8.4999 0L3.27757 5.22255L5.19853 7.14354Z" />
<path d="M3.84196 8.49969L1.92103 6.57873L0 8.49979L1.92093 10.4207L3.84196 8.49969Z" />
<path d="M5.19854 9.85646L8.49991 13.1577L11.8029 9.85485L13.7249 11.7748L13.724 11.7758L8.49991 17L3.27475 11.7749L5.19854 9.85646Z" />
<path d="M15.079 10.4217L17 8.50061L15.0791 6.57965L13.158 8.50071L15.079 10.4217Z" />
<path d="M10.4484 8.499H10.4492L8.4999 6.54967L6.54967 8.49994L6.55235 8.50276L8.4999 10.4503L10.4492 8.50101L10.4501 8.49994L10.4484 8.499Z" />
</svg>
