<svg xmlns="http://www.w3.org/2000/svg" fill="none" viewBox="0 0 24 24" stroke-width="1.5" stroke="currentColor" width="24" height="24">
  <path stroke-linecap="round" stroke-linejoin="round" d="M20.25 8.511c.884.284 1.5 1.128 1.5 2.097v4.286c0 1.136-.847 2.1-1.98 2.193-.34.027-.68.052-1.02.072v3.091l-3-3c-1.354 0-2.694-.055-4.02-.163a2.115 2.115 0 01-.825-.242m9.345-8.334a2.126 2.126 0 00-.476-.095 48.64 48.64 0 00-8.048 0c-1.131.094-1.976 1.057-1.976 2.192v4.286c0 .837.46 1.58 1.155 1.951m9.345-8.334V6.637c0-1.621-1.152-3.026-2.76-3.235A48.455 48.455 0 0011.25 3c-2.115 0-4.198.137-6.24.402-1.608.209-2.76 1.614-2.76 3.235v6.226c0 1.621 1.152 3.026 2.76 3.235.577.075 1.157.14 1.74.194V21l4.155-4.155" />
</svg>

<svg  xmlns="http://www.w3.org/2000/svg" width="24" height="24" viewBox="-1.6 -1.6 19.2 19.2">
  <path d="M16 8c0 3.866-3.582 7-8 7a9.06 9.06 0 01-2.347-.306c-.584.296-1.925.864-4.181 1.234-.2.032-.352-.176-.273-.362.354-.836.674-1.95.77-2.966C.744 11.37 0 9.76 0 8c0-3.866 3.582-7 8-7s8 3.134 8 7zM5 8a1 1 0 10-2 0 1 1 0 002 0zm4 0a1 1 0 10-2 0 1 1 0 002 0zm3 1a1 1 0 100-2 1 1 0 000 2z" />
</svg>
