<svg width="16" height="16" viewBox="0 0 16 16" fill="none" xmlns="http://www.w3.org/2000/svg">
<path d="M8 1.332C11.6827 1.332 14.668 4.31733 14.668 8C14.668 11.682 11.6827 14.6667 8 14.6667C4.31733 14.6673 1.332 11.682 1.332 8C1.332 4.31733 4.31733 1.332 8 1.332ZM8 2.332C7.25054 2.32387 6.50691 2.46447 5.81215 2.74565C5.11738 3.02683 4.48529 3.44301 3.95244 3.97011C3.4196 4.49721 2.99658 5.12476 2.70788 5.81643C2.41918 6.5081 2.27053 7.25016 2.27053 7.99967C2.27053 8.74917 2.41918 9.49124 2.70788 10.1829C2.99658 10.8746 3.4196 11.5021 3.95244 12.0292C4.48529 12.5563 5.11738 12.9725 5.81215 13.2537C6.50691 13.5349 7.25054 13.6755 8 13.6673C9.49251 13.6511 10.9184 13.0469 11.9681 11.9858C13.0178 10.9246 13.6065 9.49227 13.6065 7.99967C13.6065 6.50707 13.0178 5.07471 11.9681 4.01358C10.9184 2.95244 9.49251 2.34819 8 2.332V2.332ZM5.64133 9.85533C5.92193 10.2125 6.28011 10.5012 6.68875 10.6995C7.09739 10.8978 7.54578 11.0006 8 11C8.45373 11.0006 8.90164 10.898 9.30991 10.7C9.71817 10.5021 10.0761 10.2139 10.3567 9.85733C10.3974 9.80581 10.4478 9.76281 10.5052 9.73079C10.5625 9.69877 10.6256 9.67836 10.6908 9.67071C10.756 9.66306 10.8221 9.66834 10.8853 9.68623C10.9484 9.70413 11.0075 9.73429 11.059 9.775C11.1105 9.81571 11.1535 9.86617 11.1855 9.9235C11.2176 9.98082 11.238 10.0439 11.2456 10.1091C11.2533 10.1743 11.248 10.2404 11.2301 10.3036C11.2122 10.3668 11.182 10.4258 11.1413 10.4773C10.7672 10.9524 10.29 11.3363 9.74583 11.6C9.20167 11.8638 8.60472 12.0006 8 12C7.3945 12.0005 6.79682 11.8633 6.25214 11.5988C5.70747 11.3343 5.23005 10.9495 4.856 10.4733C4.81362 10.422 4.78193 10.3626 4.7628 10.2988C4.74367 10.235 4.73747 10.168 4.74458 10.1018C4.75169 10.0356 4.77196 9.97146 4.8042 9.91318C4.83644 9.8549 4.88 9.80364 4.93232 9.76243C4.98464 9.72121 5.04466 9.69086 5.10887 9.67316C5.17309 9.65547 5.24018 9.65078 5.30623 9.65937C5.37228 9.66796 5.43595 9.68966 5.49349 9.7232C5.55104 9.75674 5.6013 9.80144 5.64133 9.85467V9.85533ZM6 5.83333C6.11137 5.83018 6.22225 5.8494 6.32607 5.88984C6.42989 5.93029 6.52454 5.99114 6.60443 6.0688C6.68432 6.14647 6.74783 6.23936 6.79119 6.342C6.83456 6.44463 6.8569 6.55492 6.8569 6.66633C6.8569 6.77775 6.83456 6.88804 6.79119 6.99067C6.74783 7.09331 6.68432 7.1862 6.60443 7.26386C6.52454 7.34153 6.42989 7.40238 6.32607 7.44283C6.22225 7.48327 6.11137 7.50248 6 7.49933C5.78315 7.4932 5.57725 7.40275 5.42604 7.2472C5.27483 7.09165 5.19024 6.88327 5.19024 6.66633C5.19024 6.4494 5.27483 6.24102 5.42604 6.08547C5.57725 5.92992 5.78315 5.83947 6 5.83333ZM10 5.83333C10.1114 5.83018 10.2222 5.8494 10.3261 5.88984C10.4299 5.93029 10.5245 5.99114 10.6044 6.0688C10.6843 6.14647 10.7478 6.23936 10.7912 6.342C10.8346 6.44463 10.8569 6.55492 10.8569 6.66633C10.8569 6.77775 10.8346 6.88804 10.7912 6.99067C10.7478 7.09331 10.6843 7.1862 10.6044 7.26386C10.5245 7.34153 10.4299 7.40238 10.3261 7.44283C10.2222 7.48327 10.1114 7.50248 10 7.49933C9.78315 7.4932 9.57725 7.40275 9.42604 7.2472C9.27483 7.09165 9.19024 6.88327 9.19024 6.66633C9.19024 6.4494 9.27483 6.24102 9.42604 6.08547C9.57725 5.92992 9.78315 5.83947 10 5.83333V5.83333Z" />
</svg>
