<svg width="113" height="113" viewBox="0 0 113 113" xmlns="http://www.w3.org/2000/svg">
<path d="M56.1563 0C45.0496 0 34.1924 3.29351 24.9575 9.46404C15.7227 15.6346 8.525 24.405 4.27467 34.6662C0.0243316 44.9274 -1.08775 56.2186 1.07905 67.1118C3.24585 78.0051 8.59422 88.0112 16.4478 95.8648C24.3014 103.718 34.3075 109.067 45.2008 111.234C56.094 113.4 67.3852 112.288 77.6464 108.038C87.9076 103.788 96.678 96.5899 102.849 87.355C109.019 78.1202 112.313 67.2629 112.313 56.1563C112.313 41.2627 106.396 26.9791 95.8648 16.4478C85.3334 5.91645 71.0499 0 56.1563 0ZM53.553 83.775C50.493 85.9648 46.8303 87.1542 43.0676 87.1801C36.5998 87.1801 30.6274 83.6309 26.1234 77.1721C22.074 70.9847 19.8282 63.7917 19.6376 56.3995C19.6343 56.2613 19.6719 56.1252 19.7456 56.0082C19.8193 55.8912 19.9259 55.7986 20.052 55.7419L24.4479 53.7691C24.5513 53.7222 24.6649 53.7021 24.7781 53.7106C24.8913 53.7192 25.0006 53.7562 25.0958 53.8181C25.1909 53.8801 25.269 53.965 25.3226 54.0651C25.3763 54.1652 25.4038 54.2771 25.4028 54.3907C25.4028 61.7863 27.3575 68.7045 30.9067 73.8661C34.2307 78.6945 38.5365 81.3518 43.0406 81.3518C45.4802 81.3454 47.8641 80.6218 49.8957 79.271C50.0388 79.18 50.2109 79.1462 50.3777 79.1763C50.5446 79.2063 50.6941 79.298 50.7965 79.4331C51.6574 80.6114 52.5995 81.7281 53.616 82.7751C53.6806 82.8434 53.7305 82.9242 53.7625 83.0126C53.7945 83.101 53.808 83.195 53.802 83.2888C53.7961 83.3826 53.771 83.4742 53.7281 83.5578C53.6853 83.6415 53.6256 83.7154 53.553 83.775ZM86.1171 77.1721C81.6852 83.6309 75.6678 87.1801 69.2 87.1801C62.7322 87.1801 56.7508 83.6309 52.2918 77.1721C48.0851 71.0556 45.761 62.9664 45.761 54.4087C45.761 46.4906 50.3191 40.3021 56.1383 40.3021C61.9575 40.3021 66.5066 46.4906 66.5066 54.4087C66.5843 61.3207 64.9504 68.1444 61.7503 74.2715C61.6968 74.3687 61.6206 74.4517 61.5283 74.5134C61.4361 74.5751 61.3303 74.6138 61.22 74.6261C61.1096 74.6385 60.998 74.6242 60.8943 74.5844C60.7906 74.5447 60.6981 74.4806 60.6243 74.3976C60.084 73.7886 59.5844 73.1447 59.129 72.4699C58.5871 71.6996 58.0937 70.8963 57.6516 70.0647C57.6049 69.971 57.5805 69.8677 57.5805 69.763C57.5805 69.6582 57.6049 69.5549 57.6516 69.4612C59.7047 64.7108 60.7418 59.5836 60.6964 54.4087C60.6964 50.4902 58.7506 46.1033 56.1383 46.1033C53.5259 46.1033 51.5712 50.4902 51.5712 54.4087C51.5712 61.8043 53.5259 68.7225 57.0751 73.8841C60.3991 78.7125 64.705 81.3699 69.2 81.3699C73.695 81.3699 78.0099 78.6674 81.3338 73.8841C84.883 68.7225 86.8378 61.8043 86.8378 54.4087C86.8378 47.0131 84.883 40.0949 81.3338 34.9243C80.3094 33.4258 79.0987 32.0637 77.7306 30.8706C77.6436 30.7945 77.5773 30.6975 77.5379 30.5888C77.4984 30.4801 77.4872 30.3632 77.5052 30.2489C77.5232 30.1347 77.5698 30.0269 77.6407 29.9356C77.7117 29.8442 77.8046 29.7723 77.9108 29.7266L82.2887 27.7538C82.4156 27.6959 82.5573 27.6786 82.6944 27.7044C82.8315 27.7302 82.9573 27.7978 83.0544 27.898C84.1849 29.0501 85.2099 30.3012 86.1171 31.6363C90.3239 37.7618 92.648 45.842 92.648 54.4087C92.648 62.9754 90.3239 71.0556 86.1171 77.1721Z" />
</svg>
