<?xml version="1.0" standalone="no"?>
<!DOCTYPE svg PUBLIC "-//W3C//DTD SVG 20010904//EN"
 "http://www.w3.org/TR/2001/REC-SVG-20010904/DTD/svg10.dtd">
<svg version="1.0" xmlns="http://www.w3.org/2000/svg"
 width="75.000000pt" height="76.000000pt" viewBox="0 0 75.000000 76.000000"
 preserveAspectRatio="xMidYMid meet">

<g transform="translate(0.000000,76.000000) scale(0.100000,-0.100000)"
fill="#000000" stroke="none">
<path d="M317 720 c-66 -17 -133 -58 -180 -110 -123 -137 -118 -341 12 -471
76 -76 145 -102 256 -97 97 4 159 31 225 98 73 73 95 127 95 240 0 84 -3 102
-28 151 -67 137 -241 224 -380 189z m197 -126 c23 -9 20 -29 -10 -74 -18 -27
-24 -45 -19 -60 7 -21 5 -22 -53 -18 -43 2 -58 0 -55 -9 3 -6 -5 -18 -16 -25
-12 -7 -21 -23 -21 -36 0 -12 -7 -25 -17 -29 -14 -5 -13 -8 5 -14 14 -5 22
-17 22 -30 0 -12 3 -20 6 -16 3 3 17 2 30 -3 19 -8 29 -5 45 11 24 24 21 52
-6 57 -20 4 -20 4 0 -11 16 -13 17 -17 6 -31 -39 -47 -99 16 -75 79 19 49 129
53 154 5 7 -13 7 -21 -2 -26 -7 -5 -4 -10 10 -15 25 -9 31 -58 10 -81 -7 -7
-14 -20 -16 -28 -4 -23 -44 -52 -63 -47 -10 3 -20 -1 -23 -9 -3 -9 -21 -14
-46 -14 -48 0 -80 14 -80 36 0 8 -4 13 -9 10 -15 -9 -39 4 -56 31 -15 23 -15
26 1 44 17 19 17 20 -1 13 -24 -10 -45 20 -45 64 0 44 16 72 42 72 20 0 20 1
5 18 -15 16 -15 20 2 45 37 56 84 71 94 30 2 -10 3 -3 1 15 -2 26 2 35 19 42
25 10 138 13 161 4z"/>
</g>
</svg>
