<svg width="19" height="19" viewBox="0 0 19 19" xmlns="http://www.w3.org/2000/svg">
<path d="M4.474 6.115C4.674 6.115 4.868 6.144 5.05 6.201C5.74 5.428 6.505 4.724 7.333 4.101C7.298 3.955 7.279 3.802 7.279 3.646C7.279 3.429 7.315 3.22 7.381 3.025C6.452 2.361 5.444 1.802 4.37 1.371C3.365 1.992 2.488 2.802 1.788 3.752C2.307 4.672 2.924 5.529 3.626 6.309C3.882 6.185 4.169 6.115 4.474 6.115ZM2.516 8.072C2.516 7.797 2.574 7.535 2.675 7.299C2.047 6.607 1.478 5.863 0.98 5.07C0.355 6.312 0 7.715 0 9.201C0 10.92 0.474 12.529 1.295 13.906C1.589 12.252 2.146 10.687 2.915 9.254C2.665 8.926 2.516 8.515 2.516 8.072ZM9.236 1.689C9.753 1.689 10.221 1.89 10.572 2.218C11.593 1.779 12.668 1.441 13.787 1.226C12.436 0.447 10.87 0 9.2 0C8.061 0 6.971 0.209 5.964 0.588C6.763 0.983 7.525 1.443 8.241 1.963C8.533 1.789 8.872 1.689 9.236 1.689ZM12.162 10.908C12.284 10.654 12.457 10.429 12.671 10.252C12.093 8.475 11.178 6.848 9.999 5.449C9.765 5.549 9.507 5.603 9.235 5.603C8.81 5.603 8.419 5.466 8.098 5.238C7.388 5.777 6.731 6.381 6.134 7.041C6.322 7.34 6.431 7.693 6.431 8.072C6.431 8.275 6.4 8.472 6.341 8.658C8.058 9.804 10.035 10.592 12.162 10.908ZM14.701 13.551C14.727 13.922 14.742 14.295 14.742 14.672C14.742 15.336 14.7 15.99 14.62 16.633C16.18 15.494 17.368 13.875 17.967 11.994C17.257 12.166 16.529 12.289 15.786 12.359C15.613 12.896 15.214 13.328 14.701 13.551ZM11.704 12.224C9.432 11.847 7.327 10.98 5.494 9.74C5.196 9.922 4.847 10.029 4.473 10.029C4.334 10.029 4.201 10.015 4.071 9.988C3.194 11.65 2.633 13.505 2.472 15.472C3.348 16.412 4.416 17.169 5.617 17.677C7.109 15.384 9.193 13.488 11.704 12.224ZM15.376 2.381C13.901 2.524 12.493 2.895 11.183 3.449C11.189 3.515 11.193 3.58 11.193 3.646C11.193 3.955 11.119 4.246 10.992 4.505C12.303 6.044 13.319 7.835 13.961 9.796C14.758 9.812 15.438 10.298 15.731 10.991C16.617 10.901 17.479 10.731 18.309 10.487C18.369 10.067 18.401 9.637 18.401 9.2C18.4 6.496 17.234 4.064 15.376 2.381ZM12.689 13.269C10.345 14.367 8.385 16.058 6.966 18.125C7.681 18.304 8.429 18.4 9.2 18.4C10.587 18.4 11.902 18.091 13.082 17.541C13.272 16.613 13.372 15.654 13.372 14.672C13.372 14.317 13.356 13.965 13.329 13.617C13.093 13.541 12.876 13.424 12.689 13.269Z" />
</svg>
