<svg width="20" height="17" viewBox="0 0 20 17" xmlns="http://www.w3.org/2000/svg">
<path d="M15.0923 5.19344C14.7233 4.97781 14.2435 4.97781 13.8376 5.19344L10.9594 6.84672L9.00368 7.92496L6.12545 9.57824C5.75645 9.79387 5.27674 9.79387 4.87084 9.57824L2.58303 8.28436C2.21402 8.0687 1.95572 7.67337 1.95572 7.24208V4.69029C1.95572 4.25899 2.17712 3.86363 2.58303 3.648L4.83394 2.39006C5.20297 2.17442 5.68264 2.17442 6.08855 2.39006L8.33948 3.648C8.70848 3.86363 8.96677 4.25899 8.96677 4.69029V6.34356L10.9225 5.22938V3.57611C10.9225 3.14482 10.7011 2.74947 10.2952 2.53383L6.12545 0.161733C5.75645 -0.0539112 5.27674 -0.0539112 4.87084 0.161733L0.627306 2.53383C0.221402 2.74947 0 3.14482 0 3.57611V8.35622C0 8.78752 0.221402 9.18288 0.627306 9.39851L4.87084 11.7706C5.23984 11.9863 5.71955 11.9863 6.12545 11.7706L9.00368 10.1533L10.9594 9.03911L13.8376 7.42177C14.2066 7.20614 14.6864 7.20614 15.0923 7.42177L17.3432 8.67972C17.7122 8.89535 17.9705 9.29071 17.9705 9.722V12.2738C17.9705 12.7051 17.7491 13.1004 17.3432 13.3161L15.0923 14.6099C14.7233 14.8256 14.2435 14.8256 13.8376 14.6099L11.5867 13.352C11.2177 13.1364 10.9594 12.741 10.9594 12.3097V10.6565L9.00368 11.7706V13.4239C9.00368 13.8552 9.2251 14.2505 9.631 14.4662L13.8745 16.8383C14.2435 17.0539 14.7233 17.0539 15.1292 16.8383L19.3727 14.4662C19.7417 14.2505 20 13.8552 20 13.4239V8.64375C20 8.21246 19.7786 7.81713 19.3727 7.60147L15.0923 5.19344Z" />
</svg>
