<svg width="16" height="16" viewBox="0 0 16 16" fill="none" xmlns="http://www.w3.org/2000/svg">
<path d="M1.17699 1.119C1.25168 1.05563 1.34333 1.01559 1.44058 1.00386C1.53782 0.992127 1.63637 1.00921 1.72399 1.053L14.724 7.553C14.8069 7.59457 14.8767 7.6584 14.9254 7.73734C14.9741 7.81628 15 7.90723 15 8C15 8.09278 14.9741 8.18372 14.9254 8.26266C14.8767 8.34161 14.8069 8.40543 14.724 8.447L1.72399 14.947C1.63643 14.9909 1.5379 15.0081 1.44065 14.9965C1.34339 14.9849 1.25168 14.945 1.17691 14.8817C1.10213 14.8185 1.04759 14.7346 1.02005 14.6406C0.992509 14.5466 0.993183 14.4466 1.02199 14.353L2.97699 8L1.02199 1.647C0.993347 1.55348 0.992767 1.45361 1.02032 1.35976C1.04787 1.26591 1.10234 1.1822 1.17699 1.119V1.119ZM3.86899 8.5L2.32199 13.53L13.382 8L2.32199 2.47L3.86899 7.5H9.49999C9.63259 7.5 9.75977 7.55268 9.85354 7.64645C9.94731 7.74022 9.99999 7.86739 9.99999 8C9.99999 8.13261 9.94731 8.25979 9.85354 8.35355C9.75977 8.44732 9.63259 8.5 9.49999 8.5H3.86999H3.86899Z"/>
</svg>
