<svg width="15" height="15" viewBox="0 0 15 15" fill="none" xmlns="http://www.w3.org/2000/svg">
    <path fill-rule="evenodd" clip-rule="evenodd"
          d="M5.5 3.25C4.80964 3.25 4.25 3.80964 4.25 4.5C4.25 5.19036 4.80964 5.75 5.5 5.75C6.19036 5.75 6.75 5.19036 6.75 4.5C6.75 3.80964 6.19036 3.25 5.5 3.25ZM1.5 5.25H2.85352C3.17998 6.40425 4.24122 7.25 5.5 7.25C6.75878 7.25 7.82002 6.40425 8.14648 5.25H13.5C13.9142 5.25 14.25 4.91421 14.25 4.5C14.25 4.08579 13.9142 3.75 13.5 3.75H8.14648C7.82002 2.59575 6.75878 1.75 5.5 1.75C4.24122 1.75 3.17998 2.59575 2.85352 3.75H1.5C1.08579 3.75 0.75 4.08579 0.75 4.5C0.75 4.91421 1.08579 5.25 1.5 5.25ZM12.1465 11.25C11.82 12.4043 10.7588 13.25 9.5 13.25C8.24122 13.25 7.17998 12.4043 6.85352 11.25H1.5C1.08579 11.25 0.75 10.9142 0.75 10.5C0.75 10.0858 1.08579 9.75 1.5 9.75H6.85352C7.17998 8.59575 8.24122 7.75 9.5 7.75C10.7588 7.75 11.82 8.59575 12.1465 9.75H13.5C13.9142 9.75 14.25 10.0858 14.25 10.5C14.25 10.9142 13.9142 11.25 13.5 11.25H12.1465ZM8.25 10.5C8.25 9.80964 8.80964 9.25 9.5 9.25C10.1904 9.25 10.75 9.80964 10.75 10.5C10.75 11.1904 10.1904 11.75 9.5 11.75C8.80964 11.75 8.25 11.1904 8.25 10.5Z"
          fill="#8D98A7"/>
</svg>
