<svg width="22" height="22" viewBox="0 0 22 22" xmlns="http://www.w3.org/2000/svg">
<path d="M11 3.66667C6.95724 3.66667 3.66667 6.95619 3.66667 11C3.66667 15.0428 6.95724 18.3333 11 18.3333C15.0428 18.3333 18.3333 15.0428 18.3333 11C18.3333 6.95619 15.0428 3.66667 11 3.66667Z" />
<path d="M11 2.61905C10.7109 2.61905 10.4762 2.38333 10.4762 2.09524V0.52381C10.4762 0.233619 10.7109 0 11 0C11.2891 0 11.5238 0.233619 11.5238 0.52381V2.09524C11.5238 2.38333 11.2891 2.61905 11 2.61905Z" />
<path d="M16.9253 5.0736C16.7211 4.86932 16.7211 4.53722 16.9253 4.33294L18.0379 3.22036C18.2422 3.01608 18.5743 3.01608 18.7786 3.22036C18.9829 3.42465 18.9829 3.75675 18.7786 3.96103L17.666 5.0736C17.4628 5.27684 17.1307 5.27789 16.9253 5.0736Z" />
<path d="M21.4762 11.5238H19.9048C19.6156 11.5238 19.381 11.2881 19.381 11C19.381 10.7098 19.6156 10.4762 19.9048 10.4762H21.4762C21.7653 10.4762 22 10.7098 22 11C22 11.2881 21.7653 11.5238 21.4762 11.5238Z" />
<path d="M18.0379 18.7775L16.9253 17.667C16.7211 17.4628 16.7211 17.1307 16.9253 16.9264C17.1296 16.7221 17.4617 16.7221 17.666 16.9264L18.7786 18.0379C18.9829 18.2422 18.9829 18.5743 18.7786 18.7786C18.5733 18.9818 18.2422 18.9818 18.0379 18.7775Z" />
<path d="M11 22C10.7109 22 10.4762 21.7643 10.4762 21.4762V19.9048C10.4762 19.6146 10.7109 19.381 11 19.381C11.2891 19.381 11.5238 19.6146 11.5238 19.9048V21.4762C11.5238 21.7643 11.2891 22 11 22Z" />
<path d="M3.22139 18.7775C3.0171 18.5733 3.0171 18.2412 3.22139 18.0369L4.33396 16.9253C4.53825 16.7211 4.87034 16.7211 5.07463 16.9253C5.27891 17.1296 5.27891 17.4617 5.07463 17.666L3.96205 18.7765C3.75777 18.9818 3.42672 18.9818 3.22139 18.7775Z" />
<path d="M2.09524 11.5238H0.52381C0.234667 11.5238 0 11.2881 0 11C0 10.7098 0.234667 10.4762 0.52381 10.4762H2.09524C2.38438 10.4762 2.61905 10.7098 2.61905 11C2.61905 11.2881 2.38438 11.5238 2.09524 11.5238Z" />
<path d="M4.33396 5.0736L3.22139 3.96103C3.0171 3.75675 3.0171 3.42465 3.22139 3.22036C3.42567 3.01608 3.75777 3.01608 3.96205 3.22036L5.07463 4.33294C5.27891 4.53722 5.27891 4.86932 5.07463 5.0736C4.87034 5.27789 4.53825 5.27789 4.33396 5.0736Z" />
</svg>
