<svg xmlns="http://www.w3.org/2000/svg" viewBox="0 0 50.24 50.44"><defs><style>.cls-1{fill:#8b98a9;}</style></defs><g id="Layer_2" data-name="Layer 2"><g id="Layer_9" data-name="Layer 9"><path class="cls-1" d="M24.52,24.74c-.59-.38-1.18-.74-1.76-1.12-.19-.12-.32-.13-.47.05a4.29,4.29,0,0,1-3,1.43h-.18c-.26-.08-.35,0-.37.29-.05.73-.11,1.46-.16,2.19,0,.49-.05,1-.09,1.46a.43.43,0,0,0,.26.5,3.08,3.08,0,0,1,1.65,3A3.18,3.18,0,0,1,18,35.39a3.21,3.21,0,0,1-1.94-.06.36.36,0,0,0-.42.09c-.53.51-1.07,1-1.61,1.51a.3.3,0,0,0-.05.47,4.42,4.42,0,0,1-2.84,7,4.45,4.45,0,1,1,.51-8.66,3.92,3.92,0,0,1,1.31.65.34.34,0,0,0,.51,0c.47-.45.94-.9,1.42-1.33.2-.18.15-.27,0-.44A3.14,3.14,0,0,1,15,29.93a3.07,3.07,0,0,1,2.1-.81c.29,0,.38-.08.4-.37.08-1.2.18-2.41.28-3.61,0-.17,0-.28-.21-.36a4.07,4.07,0,0,1-2.28-2.2c-.1-.22-.21-.31-.44-.23l-2.67.88c-.23.07-.14.19-.07.33a6.65,6.65,0,0,1,.69,2.07,6.27,6.27,0,0,1-1.4,5.05A6.2,6.2,0,0,1,7.31,33,6.39,6.39,0,0,1,.94,29.9,6.17,6.17,0,0,1,0,26.12a6.48,6.48,0,0,1,4.62-5.69c.69-.2.71-.19.65-.88s-.13-1.07-.17-1.6c0-.22-.09-.29-.32-.34A3.25,3.25,0,0,1,2,14.29a3.29,3.29,0,0,1,2.85-3A3.24,3.24,0,0,1,8.3,13.57c.07.25.15.32.43.29.51,0,1,0,1.54,0a.3.3,0,0,0,.34-.24,2.69,2.69,0,0,1,1.54-1.66c.16-.06.25-.14.23-.32-.07-.57-.12-1.14-.17-1.71,0-.19-.14-.2-.28-.22a2.89,2.89,0,0,1-1.7-.85,2.67,2.67,0,0,1-.44-3.11,2.75,2.75,0,0,1,2.74-1.44,2.81,2.81,0,0,1,2.33,2.19,2.71,2.71,0,0,1-1.39,2.86c-.29.16-.4.29-.32.63a15,15,0,0,1,.17,1.5c0,.18,0,.27.26.3a2.73,2.73,0,0,1,2.32,2.72,2.79,2.79,0,0,1-2.41,2.64,2.7,2.7,0,0,1-2.91-2c-.07-.29-.19-.38-.47-.36q-.73.06-1.47.06c-.26,0-.27.17-.31.32a3.13,3.13,0,0,1-1.79,2.18c-.5.25-.5.24-.44.82s.13,1.17.17,1.75c0,.18.07.25.26.26a6.37,6.37,0,0,1,4.71,2.16c.15.17.31.13.48.08l3-1a.34.34,0,0,0,.26-.38,4.21,4.21,0,0,1,3.19-4.23s.06-.05.1,0c.61,0,.82-.32,1-.85.38-1.13.83-2.23,1.25-3.34.09-.23.08-.35-.19-.48a6.32,6.32,0,0,1-3.8-5.06A6.44,6.44,0,0,1,20.73.15c.08,0,.23,0,.18-.15h4c-.05.1,0,.12.1.14a6.46,6.46,0,0,1,4.15,4.49c.06.18.13.22.3.22l3.93-.07a.38.38,0,0,0,.36-.25,3.12,3.12,0,0,1,2.8-1.76,3.18,3.18,0,0,1,3.16,2.37,3,3,0,0,1-.56,2.76c-.16.21-.14.35.07.52.59.47,1.17,1,1.73,1.47a.56.56,0,0,0,.66.11,4.19,4.19,0,1,1-2.71,4.34,4,4,0,0,1,1.34-3.48c.24-.22.24-.32,0-.52-.59-.47-1.14-1-1.7-1.46A.37.37,0,0,0,38,8.81,3,3,0,0,1,35.6,9c-.18-.07-.28,0-.35.17-.24.74-.5,1.47-.76,2.2-.07.19,0,.28.15.38a4.17,4.17,0,0,1,2,4.78,4.3,4.3,0,0,1-3.39,3c-.71.08-.72.08-.82.83-.06.43-.1.85-.14,1.28a3.61,3.61,0,0,1-.87-.06c.07-.58.13-1.16.22-1.74a.35.35,0,0,0-.3-.45,3.6,3.6,0,0,1-1.5-.81,4.16,4.16,0,0,1-.8-5.44c.19-.31.15-.43-.15-.6-.61-.36-1.21-.74-1.8-1.13a.34.34,0,0,0-.46,0,6.41,6.41,0,0,1-4.86,1.12.29.29,0,0,0-.38.22c-.43,1.19-.87,2.38-1.33,3.56-.11.29-.1.42.23.51A4.17,4.17,0,0,1,23,22.48c-.09.21-.07.31.14.44.65.39,1.28.8,1.92,1.21A2.8,2.8,0,0,1,24.52,24.74Zm8.53-19.1h-.74l-2.57,0c-.25,0-.44.06-.4.4a4.54,4.54,0,0,1-.1,1.27,6.26,6.26,0,0,1-1.55,3.18c-.13.15-.12.23.06.34.63.38,1.26.78,1.89,1.19a.38.38,0,0,0,.49,0,4.08,4.08,0,0,1,3.19-.74c.26,0,.34,0,.41-.25.26-.77.53-1.54.8-2.31a.29.29,0,0,0-.11-.38A3.15,3.15,0,0,1,33.37,5.9C33.37,5.65,33.28,5.57,33.05,5.64Z"/><path class="cls-1" d="M24.52,24.74a2.8,2.8,0,0,0,.58-.61.71.71,0,0,0,.3-.21A9.43,9.43,0,0,1,28.82,22a15.52,15.52,0,0,1,2.62-.41,3.61,3.61,0,0,0,.87.06A9.81,9.81,0,0,1,36.05,23a8.56,8.56,0,0,1,2.32,2.09.38.38,0,0,0,.21.14,3.84,3.84,0,0,0,.5.76,1.3,1.3,0,0,0,0,.21,8.78,8.78,0,0,1,1.11,3.25,11,11,0,0,1,0,1.28c0,.2,0,.39,0,.59a4.81,4.81,0,0,0-.09.85c-.21.53-.3,1.1-.51,1.63a9,9,0,0,1-4.8,5,5.56,5.56,0,0,0-1,.43,3.39,3.39,0,0,0-.82.2,18.71,18.71,0,0,1-2.37.09A9.28,9.28,0,0,1,26,37.71c-.13-.09-.23-.23-.4-.24a1.78,1.78,0,0,0-.67-.61c-.1-.39-.44-.61-.66-.9a9,9,0,0,1-1.78-4.64,8.76,8.76,0,0,1,1.9-6.27C24.42,25,24.52,24.87,24.52,24.74Z"/><path class="cls-1" d="M24.89,36.86a1.78,1.78,0,0,1,.67.61c-.33.48-.56,1-.86,1.53-.17.27-.14.36.17.5a5.63,5.63,0,0,1,3.46,4.77c0,.19.08.26.26.26l2.57.1a.28.28,0,0,0,.33-.25,3.13,3.13,0,0,1,2-2.16c.23-.09.23-.18.17-.38-.22-.81-.43-1.63-.65-2.44a3.39,3.39,0,0,1,.82-.2c.23.84.46,1.69.67,2.53,0,.19.11.31.33.32A3.05,3.05,0,0,1,37,43.1c.18.2.29.23.5,0,.63-.53,1.26-1,1.9-1.56a.38.38,0,0,0,.15-.48A2.7,2.7,0,0,1,41,37.76a2.71,2.71,0,0,1,2.71,4.63,2.67,2.67,0,0,1-3.4-.06c-.24-.22-.37-.2-.6,0-.61.53-1.25,1-1.87,1.53a.42.42,0,0,0-.19.51,3.23,3.23,0,0,1-3.28,4.08,3.31,3.31,0,0,1-3-2.66c0-.2-.08-.29-.3-.31-.87-.09-1.74,0-2.6-.12-.23,0-.24.14-.27.31a5.37,5.37,0,0,1-1.55,3,5.45,5.45,0,0,1-5.47,1.52A5.46,5.46,0,0,1,17,45.78a5.61,5.61,0,0,1,3.2-6.18,5.36,5.36,0,0,1,3.13-.49c.17,0,.32,0,.42-.18C24.14,38.23,24.52,37.55,24.89,36.86Z"/><path class="cls-1" d="M39.08,26a3.84,3.84,0,0,1-.5-.76l2.85-.77a6.24,6.24,0,0,1,.94-.26c.42-.05.49-.25.48-.64a3.64,3.64,0,0,1,2.46-3.67,3.69,3.69,0,1,1,1.15,7.17,3.59,3.59,0,0,1-3.19-2c-.15-.27-.35-.18-.54-.13-.52.13-1,.28-1.55.43Z"/><path class="cls-1" d="M40.2,32.17a4.81,4.81,0,0,1,.09-.85c.63.1,1.26.18,1.88.3.28.06.4,0,.53-.27A3.15,3.15,0,0,1,47,30a3.18,3.18,0,0,1-.41,5.84,3.2,3.2,0,0,1-4.26-3c0-.3-.09-.38-.39-.41C41.36,32.35,40.79,32.2,40.2,32.17Z"/></g></g></svg>