<svg data-v-423bf9ae="" xmlns="http://www.w3.org/2000/svg" viewBox="0 0 573 90" class="iconLeft"><!----><!----><!----><g data-v-423bf9ae="" id="3afbf1be-4eba-4288-b78c-c7d28b37da44" fill="black" transform="matrix(4.647560085914902,0,0,4.647560085914902,106.60728836715126,-2.1030197574948915)"><path d="M4.44 14.22C6.83 14.22 7.24 11.98 7.24 10.21C7.24 7.70 6.93 6.20 4.72 6.20L2.55 7.21L2.55 3.68L0.73 3.68L0.73 12.12C0.73 13.16 1.36 14.21 2.86 14.21ZM3.01 12.66C2.69 12.60 2.55 12.39 2.55 12.01L2.55 8.86L4.19 7.98C5.28 7.98 5.42 8.68 5.42 10.21C5.42 11.73 5.00 12.66 3.91 12.66ZM14.85 10.64C14.87 10.25 14.88 9.84 14.88 9.49C14.88 7.63 14.15 6.12 11.84 6.12C9.53 6.12 8.39 7.27 8.39 9.93C8.39 13.44 9.44 14.39 11.90 14.39C13.61 14.39 14.87 13.58 14.87 11.49L13.23 11.49C13.23 11.86 12.94 12.74 11.91 12.74C10.44 12.74 10.19 11.97 10.19 10.64ZM10.23 9.39C10.23 8.11 10.92 7.63 11.79 7.63C12.75 7.63 13.23 8.13 13.23 9.39ZM22.04 14.21L22.04 6.16L20.22 6.27L18.30 6.27C15.75 6.27 15.64 8.32 15.64 10.28C15.64 12.56 16.07 14.29 18.31 14.29L20.26 13.24L20.82 14.21ZM20.22 11.66L18.83 12.38C17.74 12.38 17.46 11.75 17.46 10.28C17.46 8.81 17.74 7.91 18.83 7.91L20.22 7.91ZM28.10 11.28C28.07 12.22 27.99 12.77 26.64 12.77C25.37 12.77 25.24 11.69 25.24 10.54L25.24 9.81C25.24 8.61 25.41 7.74 26.64 7.74C27.79 7.74 28.07 8.19 28.07 8.96L29.72 8.96C29.72 7.20 28.70 6.10 26.64 6.10C25.56 6.10 24.70 6.52 24.25 7.00C23.59 7.69 23.42 8.86 23.42 10.18C23.42 11.51 23.59 12.82 24.25 13.51C24.70 13.99 25.56 14.41 26.64 14.41C27.72 14.41 28.74 13.99 29.19 13.51C29.71 12.96 29.68 12.29 29.75 11.27ZM35.60 10.60C35.60 11.55 35.45 12.77 34.05 12.77C32.77 12.77 32.51 11.55 32.51 10.54L32.51 9.81C32.51 8.75 32.82 7.74 34.05 7.74C35.45 7.74 35.60 8.72 35.60 9.87ZM37.42 10.18C37.42 7.69 36.68 6.10 34.05 6.10C31.32 6.10 30.69 7.85 30.69 10.18C30.69 12.70 31.30 14.41 34.05 14.41C36.83 14.41 37.42 12.73 37.42 10.18ZM45.08 14.21L45.08 8.85C45.08 8.05 44.93 7.36 44.34 6.78C43.93 6.37 43.48 6.13 42.76 6.13L40.52 7.17L40.10 6.22L38.74 6.22L38.74 14.21L40.56 14.21L40.56 8.60L42.20 7.91C42.77 7.91 43.26 8.11 43.26 9.10L43.26 14.21ZM56.53 10.00C56.53 7.70 56.04 6.27 53.73 6.27L50.15 6.27L50.15 16.59L51.97 16.59L51.97 13.47L53.31 14.34C55.97 14.34 56.53 12.21 56.53 10.00ZM54.71 10.28C54.71 11.75 54.29 12.42 53.20 12.42L51.97 11.62L51.97 7.91L53.20 7.91C54.29 7.91 54.71 8.81 54.71 10.28ZM62.23 6.24C61.96 6.05 61.73 6.08 61.42 6.12L59.49 6.92L59.07 6.22L57.71 6.22L57.71 14.21L59.53 14.21L59.53 8.55C60.45 8.01 61.25 7.85 61.73 8.04ZM67.77 10.60C67.77 11.55 67.62 12.77 66.22 12.77C64.95 12.77 64.68 11.55 64.68 10.54L64.68 9.81C64.68 8.75 64.99 7.74 66.22 7.74C67.62 7.74 67.77 8.72 67.77 9.87ZM69.59 10.18C69.59 7.69 68.85 6.10 66.22 6.10C63.49 6.10 62.86 7.85 62.86 10.18C62.86 12.70 63.48 14.41 66.22 14.41C69.01 14.41 69.59 12.73 69.59 10.18ZM74.47 14.21L74.47 12.67L73.67 12.67C73.23 12.67 73.04 12.43 73.04 12.01L73.04 7.92L74.33 7.92L74.33 6.54L73.04 6.54L73.04 4.97L71.22 4.97L71.22 6.54L70.45 6.54L70.45 7.92L71.22 7.92L71.22 12.12C71.22 13.16 71.85 14.21 73.33 14.21ZM80.30 10.60C80.30 11.55 80.15 12.77 78.75 12.77C77.48 12.77 77.21 11.55 77.21 10.54L77.21 9.81C77.21 8.75 77.52 7.74 78.75 7.74C80.15 7.74 80.30 8.72 80.30 9.87ZM82.12 10.18C82.12 7.69 81.38 6.10 78.75 6.10C76.02 6.10 75.39 7.85 75.39 10.18C75.39 12.70 76.01 14.41 78.75 14.41C81.54 14.41 82.12 12.73 82.12 10.18ZM87.67 11.28C87.64 12.22 87.56 12.77 86.21 12.77C84.94 12.77 84.81 11.69 84.81 10.54L84.81 9.81C84.81 8.61 84.98 7.74 86.21 7.74C87.36 7.74 87.64 8.19 87.64 8.96L89.29 8.96C89.29 7.20 88.27 6.10 86.21 6.10C85.13 6.10 84.27 6.52 83.82 7.00C83.16 7.69 82.99 8.86 82.99 10.18C82.99 11.51 83.16 12.82 83.82 13.51C84.27 13.99 85.13 14.41 86.21 14.41C87.29 14.41 88.31 13.99 88.76 13.51C89.28 12.96 89.25 12.29 89.32 11.27ZM95.17 10.60C95.17 11.55 95.02 12.77 93.62 12.77C92.34 12.77 92.08 11.55 92.08 10.54L92.08 9.81C92.08 8.75 92.39 7.74 93.62 7.74C95.02 7.74 95.17 8.72 95.17 9.87ZM96.99 10.18C96.99 7.69 96.25 6.10 93.62 6.10C90.89 6.10 90.26 7.85 90.26 10.18C90.26 12.70 90.87 14.41 93.62 14.41C96.40 14.41 96.99 12.73 96.99 10.18ZM100.20 14.21L100.20 3.68L98.38 3.68L98.38 14.22Z"></path></g><!----><g data-v-423bf9ae="" id="685962a2-eb1c-46e1-85a8-63791b7966dd" transform="matrix(2.8125,0,0,2.8125,0,0)" stroke="none" fill="black"><path d="M32 0H0v32h32V0zm-2.812 19.938H23.53C22.109 22.648 19.272 24.5 16 24.5s-6.109-1.852-7.529-4.562H2.812v-7.875H8.47C9.891 9.352 12.728 7.5 16 7.5s6.109 1.852 7.529 4.562h5.658v7.876z"></path></g><!----></svg>