<svg width="512" height="512" viewBox="0 0 512 512" fill="none" xmlns="http://www.w3.org/2000/svg"><style>@media (prefers-color-scheme:dark){.logo{fill:#fff}.background{fill:#141414}}</style><rect width="512" height="512" class="background" fill="#fff"/><path d="M255.742 114.263C271.525 114.263 284.33 101.448 284.33 85.6321C284.33 69.82 271.525 57 255.742 57C239.944 57 227.139 69.82 227.139 85.6321C227.139 101.448 239.944 114.263 255.742 114.263Z" class="logo" fill="#141414"/><path d="M88.167 270.019C99.8609 270.019 109.327 260.527 109.327 248.826C109.327 237.125 99.8609 227.644 88.167 227.644C76.4833 227.644 67.0066 237.125 67.0066 248.826C67.0066 260.527 76.4833 270.019 88.167 270.019Z" class="logo" fill="#141414"/><path d="M424.451 270.019C436.129 270.019 445.606 260.527 445.606 248.826C445.606 237.125 436.129 227.644 424.451 227.644C412.762 227.644 403.285 237.125 403.285 248.826C403.285 260.527 412.762 270.019 424.451 270.019Z" class="logo" fill="#141414"/><path d="M277.467 332.433C277.467 344.132 267.991 353.623 256.309 353.623C244.622 353.623 235.146 344.132 235.146 332.433C235.146 320.733 244.622 311.248 256.309 311.248C267.991 311.248 277.467 320.733 277.467 332.433Z" class="logo" fill="#141414"/><path d="M171.662 312.393C183.355 312.393 192.825 302.902 192.825 291.206C192.825 279.5 183.355 270.019 171.662 270.019C159.975 270.019 150.504 279.5 150.504 291.206C150.504 302.902 159.975 312.393 171.662 312.393Z" class="logo" fill="#141414"/><path d="M360.965 291.206C360.965 302.902 351.489 312.393 339.807 312.393C328.114 312.393 318.644 302.902 318.644 291.206C318.644 279.5 328.114 270.019 339.807 270.019C351.489 270.019 360.965 279.5 360.965 291.206Z" class="logo" fill="#141414"/><path d="M88.1748 327.282C96.0689 327.282 102.465 320.864 102.465 312.971C102.465 305.058 96.0689 298.65 88.1748 298.65C80.2703 298.65 73.8695 305.058 73.8695 312.971C73.8695 320.864 80.2703 327.282 88.1748 327.282Z" class="logo" fill="#141414"/><path d="M438.743 312.971C438.743 320.864 432.338 327.282 424.446 327.282C416.548 327.282 410.148 320.864 410.148 312.971C410.148 305.058 416.548 298.65 424.446 298.65C432.338 298.65 438.743 305.058 438.743 312.971Z" class="logo" fill="#141414"/><path d="M256.312 412.031C264.196 412.031 270.604 405.613 270.604 397.705C270.604 389.802 264.196 383.4 256.312 383.4C248.422 383.4 242.009 389.802 242.009 397.705C242.009 405.613 248.422 412.031 256.312 412.031Z" class="logo" fill="#141414"/><path d="M185.962 355.346C185.962 363.251 179.563 369.656 171.67 369.656C163.772 369.656 157.367 363.251 157.367 355.346C157.367 347.435 163.772 341.025 171.67 341.025C179.563 341.025 185.962 347.435 185.962 355.346Z" class="logo" fill="#141414"/><path d="M339.812 369.656C347.693 369.656 354.102 363.251 354.102 355.346C354.102 347.435 347.693 341.025 339.812 341.025C331.91 341.025 325.507 347.435 325.507 355.346C325.507 363.251 331.91 369.656 339.812 369.656Z" class="logo" fill="#141414"/><path d="M95.6018 363.35C95.6018 367.469 92.2752 370.802 88.1697 370.802C84.0588 370.802 80.7323 367.469 80.7323 363.35C80.7323 359.241 84.0588 355.913 88.1697 355.913C92.2752 355.913 95.6018 359.241 95.6018 363.35Z" class="logo" fill="#141414"/><path d="M424.448 370.802C428.546 370.802 431.88 367.469 431.88 363.35C431.88 359.241 428.546 355.913 424.448 355.913C420.335 355.913 417.011 359.241 417.011 363.35C417.011 367.469 420.335 370.802 424.448 370.802Z" class="logo" fill="#141414"/><path d="M263.741 448.102C263.741 452.214 260.407 455.551 256.309 455.551C252.201 455.551 248.872 452.214 248.872 448.102C248.872 443.989 252.201 440.663 256.309 440.663C260.407 440.663 263.741 443.989 263.741 448.102Z" class="logo" fill="#141414"/><path d="M171.662 413.176C175.768 413.176 179.1 409.839 179.1 405.732C179.1 401.615 175.768 398.288 171.662 398.288C167.562 398.288 164.23 401.615 164.23 405.732C164.23 409.839 167.562 413.176 171.662 413.176Z" class="logo" fill="#141414"/><path d="M347.239 405.732C347.239 409.839 343.905 413.176 339.807 413.176C335.688 413.176 332.369 409.839 332.369 405.732C332.369 401.615 335.688 398.288 339.807 398.288C343.905 398.288 347.239 401.615 347.239 405.732Z" class="logo" fill="#141414"/><path d="M284.33 170.381C284.33 186.195 271.525 199.012 255.742 199.012C239.944 199.012 227.139 186.195 227.139 170.381C227.139 154.572 239.944 141.749 255.742 141.749C271.525 141.749 284.33 154.572 284.33 170.381Z" class="logo" fill="#141414"/><path d="M255.742 282.617C271.525 282.617 284.33 269.797 284.33 253.99C284.33 238.173 271.525 225.353 255.742 225.353C239.944 225.353 227.139 238.173 227.139 253.99C227.139 269.797 239.944 282.617 255.742 282.617Z" class="logo" fill="#141414"/><path d="M452.469 170.381C452.469 186.195 439.667 199.012 423.876 199.012C408.081 199.012 395.279 186.195 395.279 170.381C395.279 154.572 408.081 141.749 423.876 141.749C439.667 141.749 452.469 154.572 452.469 170.381Z" class="logo" fill="#141414"/><path d="M87.5977 199.012C103.391 199.012 116.19 186.195 116.19 170.381C116.19 154.572 103.391 141.749 87.5977 141.749C71.8046 141.749 59 154.572 59 170.381C59 186.195 71.8046 199.012 87.5977 199.012Z" class="logo" fill="#141414"/><path d="M200.832 128.006C200.832 143.818 188.031 156.638 172.237 156.638C156.442 156.638 143.642 143.818 143.642 128.006C143.642 112.184 156.442 99.3747 172.237 99.3747C188.031 99.3747 200.832 112.184 200.832 128.006Z" class="logo" fill="#141414"/><path d="M172.237 240.242C188.031 240.242 200.832 227.421 200.832 211.608C200.832 195.8 188.031 182.979 172.237 182.979C156.442 182.979 143.642 195.8 143.642 211.608C143.642 227.421 156.442 240.242 172.237 240.242Z" class="logo" fill="#141414"/><path d="M368.971 128.006C368.971 143.818 356.167 156.638 340.373 156.638C324.58 156.638 311.781 143.818 311.781 128.006C311.781 112.184 324.58 99.3747 340.373 99.3747C356.167 99.3747 368.971 112.184 368.971 128.006Z" class="logo" fill="#141414"/><path d="M340.373 240.242C356.167 240.242 368.971 227.421 368.971 211.608C368.971 195.8 356.167 182.979 340.373 182.979C324.58 182.979 311.781 195.8 311.781 211.608C311.781 227.421 324.58 240.242 340.373 240.242Z" class="logo" fill="#141414"/></svg>