<svg width="36" height="36" viewBox="0 0 36 36" fill="none" xmlns="http://www.w3.org/2000/svg">
    <path fill-rule="evenodd" clip-rule="evenodd" d="M11.3697 0.0320055C8.40884 0.171558 5.77765 1.8812 3.68309 5.02646C3.10625 5.89271 2.30875 7.39522 2.03897 8.12417C1.99268 8.24931 1.9206 8.41877 1.87872 8.50085C1.67856 8.89323 1.02778 10.9902 0.85488 11.8C0.815653 11.9834 0.746808 12.3011 0.701795 12.5061C0.482414 13.5045 0.293337 14.9123 0.209292 16.1743C0.0682687 18.2911 0.193307 20.719 0.54763 22.7445C0.850859 24.4775 1.39583 26.3877 1.97463 27.746C2.07574 27.9833 2.20254 28.2825 2.25638 28.4109C3.64485 31.7185 6.3793 34.5901 9.05531 35.5508C10.3461 36.0143 10.1589 36.0042 17.3519 35.9986C20.8908 35.9959 23.3752 35.9798 23.2432 35.9605C21.9474 35.7711 20.197 34.9357 19.0584 33.9633C18.6065 33.5775 18.0384 33.0155 18.0384 32.9543C18.0384 32.9269 18.0128 32.9044 17.9817 32.9044C17.8765 32.9044 16.9041 31.6973 16.4587 31.0141C15.7516 29.929 15.276 29.0128 14.6691 27.5654C12.6903 22.8467 12.3791 15.9564 13.9083 10.7212C13.9839 10.4623 14.0781 10.1358 14.1177 9.99552C14.4092 8.96305 15.4624 6.54555 15.9048 5.89359C15.9559 5.81837 16.0269 5.7002 16.0627 5.63096C16.428 4.92457 17.8847 3.04547 18.0122 3.11608C18.1098 3.17031 17.5288 2.59661 17.1558 2.27082C16.2682 1.49529 15.4178 0.968957 14.3356 0.525195C14.0654 0.414377 13.2439 0.192937 12.8604 0.127623C12.6554 0.0927103 12.4818 0.0479907 12.4747 0.0282789C12.4606 -0.0103603 12.2531 -0.00967383 11.3697 0.0320055Z" fill="#EA3C34"/>
    <path fill-rule="evenodd" clip-rule="evenodd" d="M13.233 0.0685143C13.1245 0.0938161 13.1336 0.0998965 13.3507 0.147068C14.9689 0.498351 16.8177 1.65145 18.1779 3.15779C24.6984 10.3791 24.8397 25.0573 18.4608 32.5449L18.1154 32.9504L18.2191 33.0745C18.8877 33.8753 20.4361 34.9446 21.5964 35.407C28.8523 38.2989 35.846 29.7565 35.8475 18.0002C35.8488 8.34073 31.1301 0.597302 24.9228 0.0723392C24.3902 0.0273255 13.425 0.0236968 13.233 0.0685143Z" fill="#F4FBE3"/>
</svg>
