<svg xmlns="http://www.w3.org/2000/svg" width="115" height="115" viewBox="0 0 115 115">
  <g fill="none" fill-rule="evenodd">
    <path fill="#7b1173" d="M37.0832 60.984C36.5101 61.557 36.51 62.4861 37.083 63.0592 37.6561 63.6323 38.5852 63.6324 39.1583 63.0594L43.9346 58.2829C44.5077 57.7099 44.5077 56.7807 43.9346 56.2076L39.1583 51.4313C38.5852 50.8582 37.6561 50.8582 37.083 51.4313 36.51 52.0044 36.51 52.9336 37.0832 53.5066L39.3545 55.7778 9.4627 55.7778 9.4627 58.7127 39.3545 58.7127 37.0832 60.984zM75.137 55.7778L77.4082 53.5066C77.9814 52.9336 77.9815 52.0044 77.4084 51.4313 76.8354 50.8582 75.9063 50.8582 75.3331 51.4312L70.5568 56.2076C69.9837 56.7807 69.9837 57.7099 70.5568 58.2829L75.3332 63.0593C75.9063 63.6324 76.8354 63.6323 77.4084 63.0592 77.9815 62.4861 77.9814 61.557 77.4083 60.984L75.137 58.7127 105.029 58.7127 105.029 55.7778 75.137 55.7778zM60.9847 37.0827L58.7132 39.354 58.7132 9.462 55.7783 9.462 55.7783 39.354 53.5068 37.0828C52.9338 36.5098 52.0048 36.5098 51.4318 37.0828 50.8587 37.6558 50.8587 38.5848 51.4317 39.1578L56.2084 43.9342C56.7813 44.5072 57.7103 44.5072 58.2832 43.9342L63.0598 39.1578C63.6328 38.5848 63.6328 37.6558 63.0598 37.0828 62.4868 36.5098 61.5577 36.5098 60.9847 37.0828L60.9847 37.0827zM58.2832 70.5564C57.7103 69.9832 56.7812 69.9832 56.2084 70.5564L51.4318 75.3327C50.8588 75.9057 50.8588 76.8348 51.4318 77.4078 52.0048 77.9808 52.9338 77.9808 53.5068 77.4078L55.7783 75.1365 55.7783 105.0284 58.7132 105.0284 58.7132 75.1365 60.9847 77.4078C61.5578 77.9808 62.4868 77.9808 63.0598 77.4078 63.6328 76.8348 63.6328 75.9057 63.0598 75.3327L58.2832 70.5564zM67.3927 48.5655L74.1476 48.5655C74.9581 48.5655 75.615 47.9085 75.615 47.0981 75.615 46.2876 74.9581 45.6306 74.1476 45.6306L70.9352 45.6306 92.0699 24.4959 89.9951 22.4209 68.8602 43.5556 68.8602 40.3434C68.8602 39.533 68.2031 38.876 67.3927 38.876 66.5823 38.876 65.9253 39.533 65.9253 40.3434L65.9253 47.0983C65.9253 47.9087 66.5823 48.5655 67.3927 48.5655zM47.0987 65.925L40.3438 65.925C39.5334 65.925 38.8764 66.5821 38.8764 67.3925 38.8764 68.203 39.5334 68.86 40.3438 68.86L43.5562 68.86 22.4215 89.9946 24.4963 92.0697 45.6312 70.9352 45.6312 74.1474C45.6313 74.9578 46.2883 75.6148 47.0987 75.6148 47.9092 75.6148 48.5662 74.9578 48.5662 74.1474L48.5662 67.3923C48.5662 66.5818 47.9091 65.925 47.0987 65.925zM74.1476 68.8597C74.9581 68.8597 75.615 68.2028 75.615 67.3923 75.615 66.5819 74.9581 65.9248 74.1476 65.9248L67.3927 65.9248C66.5824 65.9248 65.9255 66.5817 65.9255 67.3921L65.9255 74.1469C65.9255 74.9574 66.5825 75.6144 67.393 75.6144 68.2034 75.6144 68.8604 74.9574 68.8604 74.1469L68.8604 70.935 89.9953 92.0695 92.0701 89.9944 70.9354 68.8597 74.1476 68.8597zM47.0987 38.8759C46.2882 38.8759 45.6312 39.533 45.6312 40.3434L45.6312 43.5555 24.4963 22.4211 22.4215 24.4962 43.5562 45.6308 40.3438 45.6308C39.5334 45.6308 38.8764 46.2878 38.8764 47.0983 38.8764 47.9087 39.5334 48.5657 40.3438 48.5657L47.0987 48.5657C47.909 48.5657 48.5659 47.9088 48.5659 47.0985L48.5659 40.3434C48.5659 39.5331 47.909 38.8761 47.0987 38.8759z"/>
    <path fill="#ff4092" d="M104.594 57.2453C104.595 54.514 106.812 52.2967 109.543 52.2969 112.274 52.2972 114.491 54.5148 114.491 57.2461 114.491 59.9774 112.273 62.1947 109.542 62.1945 106.811 62.1943 104.594 59.9766 104.594 57.2453zM94.2243 15.3186C94.5491 15.3186 94.8709 15.3503 95.1896 15.4137 95.5082 15.4771 95.8176 15.571 96.1178 15.6953 96.418 15.8196 96.7031 15.972 96.9733 16.1525 97.2434 16.333 97.4933 16.5382 97.7231 16.7679 97.9528 16.9976 98.1579 17.2476 98.3384 17.5177 98.5189 17.7879 98.6714 18.073 98.7957 18.3732 98.92 18.6733 99.0139 18.9828 99.0773 19.3014 99.1407 19.6201 99.1723 19.9418 99.1723 20.2667 99.1723 20.5916 99.1407 20.9134 99.0773 21.2321 99.0139 21.5507 98.92 21.8601 98.7957 22.1603 98.6714 22.4605 98.5189 22.7456 98.3384 23.0157 98.1579 23.2859 97.9528 23.5358 97.7231 23.7656 97.4933 23.9953 97.2434 24.2004 96.9733 24.3809 96.7031 24.5614 96.418 24.7138 96.1178 24.8382 95.8176 24.9625 95.5082 25.0564 95.1896 25.1198 94.8709 25.1831 94.5491 25.2148 94.2243 25.2148 93.8994 25.2148 93.5776 25.1831 93.2589 25.1198 92.9403 25.0564 92.6309 24.9625 92.3307 24.8382 92.0305 24.7138 91.7454 24.5614 91.4752 24.3809 91.2051 24.2004 90.9552 23.9953 90.7254 23.7656 90.4957 23.5358 90.2906 23.2859 90.1101 23.0157 89.9296 22.7456 89.7771 22.4605 89.6528 22.1603 89.5285 21.8601 89.4346 21.5507 89.3712 21.2321 89.3078 20.9134 89.2762 20.5916 89.2762 20.2667 89.2762 19.9418 89.3078 19.6201 89.3712 19.3014 89.4346 18.9828 89.5285 18.6733 89.6528 18.3732 89.7771 18.073 89.9296 17.7879 90.1101 17.5177 90.2906 17.2476 90.4957 16.9976 90.7254 16.7679 90.9552 16.5382 91.2051 16.333 91.4752 16.1525 91.7454 15.972 92.0305 15.8196 92.3307 15.6953 92.6309 15.571 92.9403 15.4771 93.2589 15.4137 93.5776 15.3503 93.8994 15.3186 94.2243 15.3186zM94.2243 89.2757C94.5491 89.2757 94.8709 89.3074 95.1896 89.3708 95.5082 89.4342 95.8176 89.5281 96.1178 89.6524 96.418 89.7767 96.7031 89.9291 96.9733 90.1096 97.2434 90.2901 97.4933 90.4953 97.7231 90.725 97.9528 90.9547 98.1579 91.2047 98.3384 91.4748 98.5189 91.745 98.6714 92.0301 98.7957 92.3303 98.92 92.6304 99.0139 92.9399 99.0773 93.2585 99.1407 93.5772 99.1723 93.8989 99.1723 94.2238 99.1723 94.5487 99.1407 94.8705 99.0773 95.1892 99.0139 95.5078 98.92 95.8172 98.7957 96.1174 98.6714 96.4176 98.5189 96.7027 98.3384 96.9728 98.1579 97.243 97.9528 97.4929 97.7231 97.7227 97.4933 97.9524 97.2434 98.1575 96.9733 98.338 96.7031 98.5185 96.418 98.6709 96.1178 98.7953 95.8176 98.9196 95.5082 99.0135 95.1896 99.0769 94.8709 99.1402 94.5491 99.1719 94.2243 99.1719 93.8994 99.1719 93.5776 99.1402 93.2589 99.0769 92.9403 99.0135 92.6309 98.9196 92.3307 98.7953 92.0305 98.6709 91.7454 98.5185 91.4752 98.338 91.2051 98.1575 90.9552 97.9524 90.7254 97.7227 90.4957 97.4929 90.2906 97.243 90.1101 96.9728 89.9296 96.7027 89.7771 96.4176 89.6528 96.1174 89.5285 95.8172 89.4346 95.5078 89.3712 95.1892 89.3078 94.8705 89.2762 94.5487 89.2762 94.2238 89.2762 93.8989 89.3078 93.5772 89.3712 93.2585 89.4346 92.9399 89.5285 92.6304 89.6528 92.3303 89.7771 92.0301 89.9296 91.745 90.1101 91.4748 90.2906 91.2047 90.4957 90.9547 90.7254 90.725 90.9552 90.4953 91.2051 90.2901 91.4752 90.1096 91.7454 89.9291 92.0305 89.7767 92.3307 89.6524 92.6309 89.5281 92.9403 89.4342 93.2589 89.3708 93.5776 89.3074 93.8994 89.2757 94.2243 89.2757zM57.2458 9.897C54.5145 9.896 52.2972 7.679 52.2974 4.948 52.2976 2.217 54.5153 0 57.2466 0 59.9779 0 62.1952 2.218 62.195 4.949 62.1947 7.68 59.9771 9.897 57.2458 9.897zM57.2457 104.594C59.977 104.5942 62.1943 106.8116 62.1941 109.5427 62.1939 112.2737 59.9762 114.4908 57.2449 114.4906 54.5136 114.4904 52.2963 112.2729 52.2965 109.5419 52.2968 106.8108 54.5144 104.5937 57.2457 104.594zM20.2672 15.3186C20.5921 15.3186 20.9139 15.3503 21.2325 15.4137 21.5512 15.4771 21.8606 15.571 22.1608 15.6953 22.4609 15.8196 22.7461 15.972 23.0162 16.1525 23.2864 16.333 23.5363 16.5382 23.766 16.7679 23.9958 16.9976 24.2009 17.2476 24.3814 17.5177 24.5619 17.7879 24.7143 18.073 24.8386 18.3732 24.963 18.6733 25.0568 18.9828 25.1202 19.3014 25.1836 19.6201 25.2153 19.9418 25.2153 20.2667 25.2153 20.5916 25.1836 20.9134 25.1202 21.2321 25.0568 21.5507 24.963 21.8601 24.8386 22.1603 24.7143 22.4605 24.5619 22.7456 24.3814 23.0157 24.2009 23.2859 23.9958 23.5358 23.766 23.7656 23.5363 23.9953 23.2864 24.2004 23.0162 24.3809 22.7461 24.5614 22.4609 24.7138 22.1608 24.8382 21.8606 24.9625 21.5512 25.0564 21.2325 25.1198 20.9139 25.1831 20.5921 25.2148 20.2672 25.2148 19.9423 25.2148 19.6205 25.1831 19.3019 25.1198 18.9832 25.0564 18.6738 24.9625 18.3736 24.8382 18.0735 24.7138 17.7883 24.5614 17.5182 24.3809 17.248 24.2004 16.9981 23.9953 16.7684 23.7656 16.5386 23.5358 16.3335 23.2859 16.153 23.0157 15.9725 22.7456 15.8201 22.4605 15.6958 22.1603 15.5714 21.8601 15.4776 21.5507 15.4142 21.2321 15.3508 20.9134 15.3191 20.5916 15.3191 20.2667 15.3191 19.9418 15.3508 19.6201 15.4142 19.3014 15.4776 18.9828 15.5714 18.6733 15.6958 18.3732 15.8201 18.073 15.9725 17.7879 16.153 17.5177 16.3335 17.2476 16.5386 16.9976 16.7684 16.7679 16.9981 16.5382 17.248 16.333 17.5182 16.1525 17.7883 15.972 18.0735 15.8196 18.3736 15.6953 18.6738 15.571 18.9832 15.4771 19.3019 15.4137 19.6205 15.3503 19.9423 15.3186 20.2672 15.3186zM20.2672 89.2757C20.5921 89.2757 20.9139 89.3074 21.2325 89.3708 21.5512 89.4342 21.8606 89.5281 22.1608 89.6524 22.4609 89.7767 22.7461 89.9291 23.0162 90.1096 23.2864 90.2901 23.5363 90.4953 23.766 90.725 23.9958 90.9547 24.2009 91.2047 24.3814 91.4748 24.5619 91.745 24.7143 92.0301 24.8386 92.3303 24.963 92.6304 25.0568 92.9399 25.1202 93.2585 25.1836 93.5772 25.2153 93.8989 25.2153 94.2238 25.2153 94.5487 25.1836 94.8705 25.1202 95.1892 25.0568 95.5078 24.963 95.8172 24.8386 96.1174 24.7143 96.4176 24.5619 96.7027 24.3814 96.9728 24.2009 97.243 23.9958 97.4929 23.766 97.7227 23.5363 97.9524 23.2864 98.1575 23.0162 98.338 22.7461 98.5185 22.4609 98.6709 22.1608 98.7953 21.8606 98.9196 21.5512 99.0135 21.2325 99.0769 20.9139 99.1402 20.5921 99.1719 20.2672 99.1719 19.9423 99.1719 19.6205 99.1402 19.3019 99.0769 18.9832 99.0135 18.6738 98.9196 18.3736 98.7953 18.0735 98.6709 17.7883 98.5185 17.5182 98.338 17.248 98.1575 16.9981 97.9524 16.7684 97.7227 16.5386 97.4929 16.3335 97.243 16.153 96.9728 15.9725 96.7027 15.8201 96.4176 15.6958 96.1174 15.5714 95.8172 15.4776 95.5078 15.4142 95.1892 15.3508 94.8705 15.3191 94.5487 15.3191 94.2238 15.3191 93.8989 15.3508 93.5772 15.4142 93.2585 15.4776 92.9399 15.5714 92.6304 15.6958 92.3303 15.8201 92.0301 15.9725 91.745 16.153 91.4748 16.3335 91.2047 16.5386 90.9547 16.7684 90.725 16.9981 90.4953 17.248 90.2901 17.5182 90.1096 17.7883 89.9291 18.0735 89.7767 18.3736 89.6524 18.6738 89.5281 18.9832 89.4342 19.3019 89.3708 19.6205 89.3074 19.9423 89.2757 20.2672 89.2757zM9.897 57.2452C9.8968 59.9765 7.6794 62.1938 4.9483 62.1936 2.2173 62.1934.0002 59.9757.0004 57.2444.0006 54.5131 2.2181 52.2958 4.9491 52.2961 7.6802 52.2963 9.8973 54.5139 9.897 57.2452z"/>
  </g>
</svg>
