<svg xmlns="http://www.w3.org/2000/svg" width="86" height="120" viewBox="0 0 86 120">
  <g fill="none" fill-rule="evenodd">
    <path fill="#CA2935" d="M85.0478,34.0192 L85.0478,110.5622 C85.0478,115.2574 81.2413,119.0653 76.5446,119.067 L8.5048,119.067 C3.8096,119.067 0.0017,115.2605 0,110.5637 L0,8.505 C0,3.81 3.8065,0.002 8.5033,-1.42108547e-14 L51.0287,-1.42108547e-14 L51.0287,25.5144 C51.0287,30.2096 54.8353,34.0175 59.532,34.0191 L85.0478,34.0192 Z M56.1923,99.02 L65.3046,99.02 L65.3046,65.6083 L56.1923,65.6083 L56.1923,99.02 Z M37.9678,99.02 L47.0801,99.02 L47.0801,53.4587 L37.9678,53.4587 L37.9678,99.02 Z M19.7433,99.02 L28.8556,99.02 L28.8556,71.6832 L19.7433,71.6832 L19.7433,99.02 Z"/>
    <path fill="#96141E" d="M85.0478,34.0192 L59.5335,34.0192 C54.8383,34.0192 51.0304,30.2126 51.0287,25.5159 L51.0287,-1.42108547e-14 L85.0478,34.0192 Z"/>
  </g>
</svg>
