<svg width="15" height="20" viewBox="0 0 15 20" xmlns="http://www.w3.org/2000/svg">
<path d="M8 13.9146C8.5826 13.7087 9 13.1531 9 12.5C9 11.6716 8.32843 11 7.5 11C6.67157 11 6 11.6716 6 12.5C6 13.1531 6.4174 13.7087 7 13.9146V17H8V13.9146Z" />
<path fill-rule="evenodd" clip-rule="evenodd" d="M13 8V5.18395C13 2.33746 10.3486 0 7.5 0C4.65139 0 2 2.33746 2 5.18395V8H0.775862C0.347365 8 0 8.56848 0 8.99331V19.2308C0 19.6556 0.347365 20 0.775862 20H14.2241C14.6526 20 15 19.6556 15 19.2308V8.99331C15 8.56848 14.6526 8 14.2241 8H13ZM7.5 2C5.54204 2 4 3.15337 4 5.18395V8H11V5.18395C11 3.15337 9.45796 2 7.5 2ZM2 10V18H13V10H2Z" />
</svg>
