<svg xmlns="http://www.w3.org/2000/svg" xmlns:xlink="http://www.w3.org/1999/xlink" width="375" viewBox="0 0 375 375" height="375" version="1.0"><defs><clipPath id="d"><path d="M 0 0 L 375 0 L 375 375 L 0 375 Z M 0 0"/></clipPath><clipPath id="c"><path d="M0 0H375V375H0z"/></clipPath><clipPath id="e"><path d="M 77.300781 15.75 L 297.800781 15.75 L 297.800781 236.25 L 77.300781 236.25 Z M 77.300781 15.75"/></clipPath><filter x="0%" y="0%" width="100%" xlink:type="simple" xlink:actuate="onLoad" height="100%" id="a" xlink:show="other"><feColorMatrix values="0 0 0 0 1 0 0 0 0 1 0 0 0 0 1 0 0 0 1 0" color-interpolation-filters="sRGB"/></filter><mask id="b"><g filter="url(#a)"><path fill-opacity=".298" d="M-37.5 -37.5H412.5V412.5H-37.5z"/></g></mask></defs><path fill="#FFF" d="M-37.5 -37.5H412.5V412.5H-37.5z"/><path fill="#FFF" d="M-37.5 -37.5H412.5V412.5H-37.5z"/><path d="M-37.5 -37.5H412.5V412.5H-37.5z"/><g mask="url(#b)"><g><g clip-path="url(#c)"><path fill="#9AA7B2" d="M 289.515625 161.601562 C 292.144531 161.601562 287.660156 163.460938 289.515625 161.601562 C 289.519531 161.601562 289.515625 161.601562 289.515625 161.601562 Z M 289.515625 161.601562"/><g clip-path="url(#d)"><path fill="#9AA7B2" d="M 352.15625 160.972656 C 353.570312 160.816406 354.984375 160.898438 356.082031 160.972656 C 356.394531 162.386719 352.625 170.707031 346.113281 175.414062 C 348.003906 175.617188 348.964844 175.992188 349.945312 176.296875 C 350.105469 176.265625 350.265625 176.234375 350.429688 176.203125 C 350.363281 176.261719 350.292969 176.320312 350.226562 176.378906 C 350.292969 176.398438 350.359375 176.417969 350.429688 176.433594 C 349.40625 179.261719 337.949219 191.425781 335.203125 191.660156 C 337.320312 192.046875 341.332031 192.789062 342.660156 193.703125 C 343.914062 194.566406 332.0625 205.550781 323.820312 206.652344 C 326.320312 207.746094 333.046875 208.707031 332.84375 209.714844 C 332.691406 210.734375 322.957031 220.152344 315.183594 220.230469 C 317.304688 222.347656 321.542969 222.035156 322.40625 223.761719 C 323.269531 225.488281 310.789062 232.472656 302.078125 233.570312 C 302.386719 234.671875 307.34375 235.695312 309.140625 236.476562 C 310.945312 237.261719 303.804688 245.503906 289.910156 244.558594 C 290.929688 246.132812 294.386719 247.777344 294.777344 248.722656 C 295.5625 250.445312 288.496094 253.898438 277.980469 255.859375 C 279.3125 257.589844 283.238281 256.960938 282.925781 259.078125 C 282.609375 261.199219 273.503906 266.0625 264.164062 265.910156 C 264.636719 267.242188 266.597656 268.421875 266.519531 270.066406 C 266.453125 271.484375 257.800781 273.308594 252.683594 275.085938 C 252.761719 275.644531 252.125 276.34375 251.6875 277.105469 C 251.984375 277.300781 252.257812 277.476562 252.453125 277.722656 C 258.179688 274.53125 262.617188 273.363281 262.984375 274.542969 C 263.222656 275.25 262.125 277.523438 262.359375 278.777344 C 268.855469 272.285156 276.273438 273.089844 275.582031 274.464844 C 275.597656 274.464844 275.609375 274.460938 275.625 274.460938 C 275.609375 274.46875 275.59375 274.476562 275.574219 274.484375 C 274.964844 275.703125 273.039062 278.25 273.347656 278.9375 C 278.214844 275.640625 287.632812 273.675781 287.949219 274.933594 C 288.261719 276.1875 285.984375 277.917969 285.828125 279.957031 C 289.832031 276.582031 298.859375 277.054688 299.40625 277.523438 C 299.957031 277.917969 296.976562 281.367188 296.191406 283.019531 C 300.820312 279.957031 311.652344 280.269531 311.417969 281.289062 C 311.105469 282.3125 309.613281 284.195312 308.515625 285.609375 C 309.925781 284.507812 321.074219 285.609375 322.878906 286.628906 C 322.40625 287.257812 322.171875 287.964844 321.152344 289.0625 C 326.488281 288.589844 332.0625 291.101562 332.53125 291.964844 C 332.519531 291.980469 332.503906 291.996094 332.492188 292.011719 C 332.53125 292.023438 332.570312 292.03125 332.613281 292.042969 C 332.546875 292.054688 332.492188 292.066406 332.433594 292.078125 C 331.964844 292.597656 331.304688 293.179688 330.570312 293.691406 C 334.632812 293.925781 353.453125 297.890625 356.429688 300.171875 C 356.46875 300.183594 356.507812 300.195312 356.550781 300.207031 C 356.511719 300.214844 356.476562 300.222656 356.4375 300.234375 C 353.414062 302.429688 334.476562 305.699219 330.332031 305.777344 C 331.121094 306.328125 331.824219 306.957031 332.296875 307.503906 C 331.746094 308.289062 326.097656 310.644531 320.757812 310.015625 C 321.679688 311.082031 321.898438 311.695312 322.277344 312.324219 C 322.347656 312.367188 322.414062 312.40625 322.484375 312.449219 C 322.4375 312.445312 322.394531 312.441406 322.351562 312.4375 C 322.367188 312.46875 322.386719 312.5 322.40625 312.527344 C 320.601562 313.550781 309.375 314.257812 307.960938 313.078125 C 308.355469 313.582031 310.90625 316.945312 310.707031 317.546875 C 310.707031 317.546875 310.710938 317.550781 310.710938 317.550781 C 310.707031 317.550781 310.707031 317.550781 310.707031 317.550781 C 310.386719 318.484375 299.996094 318.332031 295.5625 315.195312 C 296.34375 316.914062 299.339844 320.617188 298.582031 320.867188 C 298.597656 320.890625 298.609375 320.90625 298.621094 320.925781 C 298.597656 320.914062 298.574219 320.898438 298.546875 320.886719 C 297.484375 321.324219 288.859375 321.375 285.121094 317.945312 C 285.199219 319.984375 287.476562 321.796875 287.082031 323.046875 C 286.769531 324.300781 277.351562 322.023438 272.640625 318.574219 C 272.25 319.199219 274.210938 321.945312 274.761719 323.203125 C 275.3125 324.382812 268.007812 325.164062 261.652344 318.335938 C 261.417969 319.511719 262.359375 321.945312 262.125 322.574219 C 261.730469 323.828125 256.707031 322.261719 250.507812 318.335938 C 250.351562 319.808594 252.5625 321.277344 251.492188 322.144531 C 251.503906 322.160156 251.515625 322.167969 251.527344 322.183594 C 251.507812 322.175781 251.488281 322.167969 251.472656 322.164062 C 250.085938 323.085938 243.4375 321.085938 239.125 316.921875 C 238.898438 317.605469 239.039062 318.535156 238.835938 319.292969 C 238.855469 319.3125 238.871094 319.335938 238.890625 319.355469 C 238.867188 319.347656 238.847656 319.339844 238.824219 319.328125 C 238.527344 320.414062 238.007812 320.308594 236.601562 319.738281 C 236.222656 320.203125 234.847656 320.835938 234.492188 321.476562 C 240.652344 321.019531 244.304688 324.75 243.238281 325.214844 C 243.253906 325.226562 243.269531 325.234375 243.285156 325.242188 C 243.253906 325.238281 243.21875 325.238281 243.1875 325.238281 C 242.226562 325.609375 240.21875 325.984375 240.144531 326.5 C 244.148438 326.972656 249.878906 330.1875 249.484375 330.972656 C 249.09375 331.757812 247.128906 331.601562 246.113281 332.621094 C 249.722656 332.621094 254.195312 337.015625 254.273438 337.488281 C 254.351562 337.957031 251.292969 338.429688 250.113281 338.902344 C 253.792969 339.359375 259.53125 344.46875 258.726562 344.929688 C 258.734375 344.933594 258.742188 344.9375 258.75 344.941406 C 258.734375 344.941406 258.71875 344.941406 258.703125 344.941406 C 258.050781 345.296875 256.472656 345.585938 255.371094 345.808594 C 256.628906 345.886719 261.886719 351.457031 262.359375 352.792969 C 262.320312 352.800781 262.289062 352.8125 262.25 352.824219 C 262.261719 352.839844 262.273438 352.855469 262.28125 352.871094 C 261.585938 352.980469 261.464844 353.179688 260.394531 353.261719 C 263.382812 355.460938 265.105469 359.226562 264.949219 359.933594 C 264.480469 359.933594 263.851562 360.011719 263.144531 359.933594 C 265.195312 361.910156 273.195312 372.496094 273.660156 375.003906 C 271.148438 374.84375 259.769531 367.9375 257.570312 366.132812 C 257.726562 366.761719 257.726562 367.390625 257.804688 367.9375 C 257.179688 368.175781 253.175781 366.839844 250.742188 364.09375 C 250.742188 365.113281 250.585938 365.585938 250.507812 366.132812 C 250.484375 366.128906 250.453125 366.117188 250.429688 366.109375 L 250.429688 366.132812 C 245.636719 363.339844 242.953125 360.628906 242.816406 359.933594 C 242.734375 361.113281 242.578125 362.835938 242.265625 363.464844 C 241.949219 364.09375 236.300781 359.148438 235.433594 355.460938 C 235.042969 356.636719 234.964844 359.777344 234.496094 359.777344 C 234.023438 359.777344 229.234375 355.773438 228.84375 352.164062 C 227.976562 353.261719 228.292969 355.144531 227.585938 355.617188 C 226.878906 356.089844 223.035156 350.671875 222.089844 346.746094 C 221.621094 346.90625 221.386719 349.261719 221.148438 350.121094 C 220.914062 350.988281 216.753906 348.082031 216.519531 341.722656 C 215.8125 342.273438 215.261719 343.921875 214.871094 344.160156 C 214.085938 344.628906 212.203125 341.570312 210.789062 336.78125 C 210.148438 337.421875 210.449219 340.957031 208.285156 338.144531 C 208.28125 338.214844 208.277344 338.28125 208.277344 338.351562 C 207.757812 337.261719 205.882812 334.769531 205.527344 330.972656 C 204.671875 331.464844 203.976562 333.296875 202.949219 331.304688 C 202.945312 331.378906 202.941406 331.449219 202.941406 331.519531 C 202.148438 330.074219 201.363281 327.042969 200.269531 325.164062 C 199.644531 325.636719 199.875 326.34375 199.015625 326.34375 C 197.285156 326.265625 196.65625 318.101562 196.425781 317.082031 C 195.699219 317.808594 195.253906 319.035156 194.707031 318.546875 C 194.703125 318.554688 194.699219 318.5625 194.695312 318.574219 C 193.390625 316.707031 193.621094 317.367188 192.980469 314.460938 C 191.742188 310.617188 190.230469 304.929688 188.84375 300.855469 C 183.765625 342.664062 190.828125 340.410156 189.28125 369.273438 L 185.59375 369.273438 C 186.636719 353.738281 183 334.421875 183 327.363281 C 183 320.582031 184.214844 309.015625 185.007812 302.210938 C 182.023438 309.996094 181.21875 318.851562 179.859375 318.472656 C 179.832031 318.507812 179.808594 318.539062 179.785156 318.574219 C 179.746094 318.511719 179.71875 318.453125 179.683594 318.398438 C 179.351562 318.179688 179.203125 317.601562 178.527344 316.921875 C 178.238281 318.164062 177.667969 326.570312 175.722656 326.164062 C 175.714844 326.199219 175.707031 326.230469 175.699219 326.265625 C 175.691406 326.226562 175.679688 326.191406 175.664062 326.152344 C 175.121094 326.015625 175.234375 325.421875 174.679688 325.007812 C 172.730469 328.214844 172.195312 333.101562 170.550781 331.761719 C 170.515625 331.839844 170.480469 331.914062 170.441406 331.992188 C 170.4375 331.878906 170.433594 331.769531 170.425781 331.65625 C 170.089844 331.347656 169.796875 330.957031 169.421875 330.8125 C 169.039062 334.953125 166.316406 339.351562 165.230469 339.039062 C 165.214844 339.070312 165.199219 339.101562 165.183594 339.132812 C 165.183594 339.097656 165.179688 339.058594 165.179688 339.023438 C 164.5625 338.785156 164.871094 337.261719 164.160156 336.621094 C 162.515625 341.488281 160.628906 344.550781 159.84375 344.160156 C 159.453125 343.921875 158.824219 342.273438 158.195312 341.722656 C 157.960938 348.160156 153.878906 350.988281 153.566406 350.121094 C 153.332031 349.257812 153.09375 346.90625 152.625 346.746094 C 151.679688 350.671875 147.914062 356.089844 147.128906 355.613281 C 146.34375 355.144531 146.738281 353.183594 145.871094 352.164062 C 145.480469 355.695312 140.691406 359.699219 140.222656 359.777344 C 139.75 359.777344 139.59375 356.714844 139.28125 355.460938 C 138.4375 359.0625 132.742188 364.257812 132.398438 363.347656 C 132.390625 363.363281 132.382812 363.375 132.371094 363.386719 C 132.375 363.359375 132.378906 363.332031 132.382812 363.308594 C 132.113281 362.59375 131.972656 361.09375 131.902344 359.933594 C 131.667969 361.191406 125.542969 365.820312 124.207031 366.132812 C 124.203125 366.097656 124.199219 366.058594 124.191406 366.023438 C 124.171875 366.035156 124.152344 366.042969 124.128906 366.054688 C 124.023438 364.800781 123.972656 364.8125 123.972656 364.09375 C 121.460938 366.839844 117.539062 368.175781 116.910156 367.9375 C 116.910156 367.46875 116.988281 366.839844 117.144531 366.132812 C 114.945312 367.9375 103.566406 374.84375 101.054688 375.003906 C 101.0625 374.957031 101.078125 374.90625 101.089844 374.859375 C 101 374.90625 100.914062 374.957031 100.816406 375.003906 C 101.003906 374.738281 107 364.324219 111.570312 359.933594 C 111.015625 360.003906 110.394531 360.011719 109.933594 359.957031 C 109.832031 359.972656 109.722656 359.992188 109.609375 360.011719 C 109.808594 358.914062 111.476562 355.355469 114.320312 353.261719 C 113.074219 353.164062 113.269531 352.957031 112.199219 352.871094 C 113.472656 350.753906 118.167969 345.882812 119.34375 345.804688 C 118.199219 345.578125 116.613281 345.273438 115.949219 344.898438 C 115.875 344.914062 115.804688 344.925781 115.730469 344.941406 C 115.773438 344.902344 115.820312 344.867188 115.863281 344.828125 C 115.578125 344.25 120.839844 339.4375 124.601562 338.902344 C 123.472656 338.449219 120.609375 337.996094 120.449219 337.546875 C 120.394531 337.550781 120.339844 337.558594 120.28125 337.566406 C 120.34375 337.519531 120.402344 337.476562 120.460938 337.433594 C 120.792969 336.753906 125.105469 332.699219 128.601562 332.621094 C 127.683594 331.703125 125.796875 331.753906 125.269531 331.023438 C 125.203125 331.035156 125.140625 331.039062 125.074219 331.050781 C 125.121094 331.011719 125.171875 330.976562 125.222656 330.941406 C 124.984375 330.105469 130.617188 326.964844 134.570312 326.5 C 134.417969 326.042969 132.257812 325.582031 131.417969 325.195312 C 131.351562 325.21875 131.285156 325.242188 131.195312 325.242188 C 131.230469 325.210938 131.265625 325.175781 131.324219 325.144531 C 130.578125 324.671875 133.867188 321.011719 140.222656 321.476562 C 139.777344 320.808594 138.347656 320.070312 138.0625 319.660156 C 136.558594 320.292969 135.976562 320.464844 135.652344 319.328125 C 135.632812 319.339844 135.609375 319.347656 135.589844 319.355469 C 135.609375 319.335938 135.625 319.316406 135.644531 319.292969 C 135.441406 318.535156 135.582031 317.605469 135.355469 316.921875 C 130.757812 321.363281 123.925781 323.082031 123.007812 322.160156 C 122.988281 322.167969 122.96875 322.175781 122.953125 322.183594 C 122.964844 322.167969 122.976562 322.160156 122.988281 322.144531 C 121.917969 321.277344 124.128906 319.808594 123.972656 318.335938 C 117.769531 322.261719 112.746094 323.828125 112.355469 322.574219 C 112.121094 321.945312 113.0625 319.515625 112.828125 318.335938 C 106.695312 324.921875 99.691406 324.429688 99.691406 323.324219 C 99.691406 322.824219 102.273438 319.269531 101.835938 318.574219 C 97.128906 322.023438 87.710938 324.300781 87.394531 323.046875 C 87.003906 321.792969 89.277344 319.988281 89.355469 317.945312 C 85.621094 321.375 76.996094 321.328125 75.933594 320.886719 C 75.90625 320.902344 75.882812 320.914062 75.855469 320.925781 C 75.867188 320.90625 75.882812 320.890625 75.898438 320.871094 C 75.191406 320.515625 78.117188 316.960938 78.917969 315.199219 C 74.484375 318.332031 64.09375 318.488281 63.773438 317.550781 C 63.765625 317.550781 63.769531 317.546875 63.773438 317.546875 C 63.570312 316.949219 66.128906 313.574219 66.515625 313.078125 C 65.136719 314.226562 54.402344 313.582031 52.21875 312.597656 C 52.171875 312.601562 52.121094 312.605469 52.074219 312.609375 C 52.097656 312.59375 52.121094 312.578125 52.144531 312.566406 C 52.121094 312.550781 52.09375 312.542969 52.074219 312.527344 C 52.542969 311.820312 52.699219 311.195312 53.71875 310.015625 C 48.382812 310.644531 42.730469 308.292969 42.179688 307.507812 C 42.652344 306.957031 43.359375 306.328125 44.144531 305.78125 C 40 305.703125 21.070312 302.433594 18.042969 300.234375 C 18.003906 300.226562 17.96875 300.214844 17.925781 300.207031 C 17.96875 300.195312 18.011719 300.183594 18.050781 300.171875 C 21.023438 297.890625 39.847656 293.925781 43.90625 293.695312 C 43.175781 293.179688 42.515625 292.601562 42.046875 292.078125 C 41.988281 292.066406 41.929688 292.054688 41.867188 292.042969 C 41.910156 292.03125 41.949219 292.023438 41.988281 292.011719 C 41.972656 291.996094 41.957031 291.980469 41.949219 291.96875 C 42.417969 291.101562 47.992188 288.589844 53.328125 289.0625 C 52.304688 287.957031 52.0625 287.238281 51.601562 286.628906 C 53.40625 285.609375 64.554688 284.507812 65.964844 285.609375 C 64.867188 284.195312 63.375 282.3125 63.058594 281.292969 C 62.828125 280.273438 73.660156 279.957031 78.289062 283.019531 C 77.503906 281.371094 74.519531 277.917969 75.074219 277.523438 C 75.621094 277.054688 84.644531 276.582031 88.648438 279.957031 C 88.492188 277.917969 86.21875 276.191406 86.53125 274.933594 C 86.84375 273.679688 96.265625 275.640625 101.132812 278.9375 C 101.4375 278.25 99.527344 275.722656 98.910156 274.496094 C 98.890625 274.488281 98.875 274.472656 98.855469 274.464844 C 98.867188 274.460938 98.882812 274.460938 98.894531 274.460938 C 98.222656 273.121094 105.578125 272.242188 112.121094 278.78125 C 112.332031 277.644531 111.457031 275.683594 111.457031 274.789062 C 111.457031 272.460938 119.433594 276.285156 121.925781 277.667969 C 122.125 277.402344 122.417969 277.222656 122.738281 277.011719 C 122.289062 276.265625 121.6875 275.582031 121.808594 275.039062 C 116.695312 273.25 107.949219 271.414062 107.882812 269.988281 C 107.804688 268.34375 109.6875 267.167969 110.234375 265.832031 C 100.894531 265.90625 91.789062 261.121094 91.476562 259 C 91.164062 256.882812 95.085938 257.511719 96.421875 255.785156 C 85.828125 253.820312 78.761719 250.371094 79.542969 248.644531 C 79.9375 247.699219 83.46875 246.054688 84.414062 244.480469 C 70.519531 245.425781 63.375 237.183594 65.179688 236.398438 C 66.984375 235.613281 71.929688 234.59375 72.246094 233.492188 C 63.613281 232.394531 51.050781 225.410156 51.917969 223.683594 C 52.703125 222.035156 57.019531 222.273438 59.136719 220.152344 C 51.367188 220.074219 41.632812 210.65625 41.476562 209.636719 C 41.242188 208.617188 47.992188 207.671875 50.503906 206.574219 C 42.339844 205.476562 30.410156 194.488281 31.664062 193.625 C 32.921875 192.761719 36.53125 192.054688 39.121094 191.582031 C 36.371094 191.429688 24.832031 179.261719 23.894531 176.359375 C 25.070312 176.125 26.011719 175.574219 28.210938 175.339844 C 21.695312 170.628906 17.925781 162.308594 18.242188 160.898438 C 18.304688 160.894531 18.375 160.886719 18.4375 160.882812 C 18.425781 160.863281 18.410156 160.839844 18.398438 160.820312 C 18.433594 160.839844 18.464844 160.859375 18.496094 160.878906 C 19.554688 160.808594 20.859375 160.75 22.167969 160.898438 C 17.691406 156.578125 0.265625 133.507812 -0.675781 128.167969 C -0.621094 128.171875 -0.5625 128.179688 -0.507812 128.1875 C -0.511719 128.183594 -0.515625 128.175781 -0.519531 128.167969 C -0.507812 128.175781 -0.496094 128.183594 -0.484375 128.191406 C 5.363281 128.890625 29.597656 143.519531 34.253906 147.476562 C 33.941406 146.144531 33.863281 144.730469 33.78125 143.632812 C 35.195312 143.160156 43.832031 146.0625 49.246094 152.03125 C 49.246094 149.753906 49.71875 148.8125 49.875 147.632812 C 49.925781 147.644531 49.984375 147.660156 50.046875 147.675781 C 50.042969 147.660156 50.039062 147.648438 50.03125 147.632812 C 50.050781 147.652344 50.070312 147.671875 50.089844 147.691406 C 53.441406 148.707031 66.210938 158.523438 66.675781 161.132812 C 66.90625 158.542969 67.222656 154.855469 67.929688 153.519531 C 68.636719 152.183594 80.800781 162.859375 82.761719 170.945312 C 83.574219 168.1875 83.78125 161.269531 84.960938 161.625 C 84.960938 161.617188 84.960938 161.609375 84.960938 161.601562 C 84.964844 161.609375 84.96875 161.617188 84.96875 161.625 C 86.417969 162.050781 96.363281 170.480469 97.207031 178.085938 C 99.089844 175.730469 98.464844 171.492188 100.03125 170.472656 C 101.605469 169.453125 109.925781 181.148438 111.886719 189.699219 C 112.90625 189.308594 113.375 184.285156 114.003906 182.402344 C 114.632812 180.519531 123.582031 186.796875 124.054688 200.6875 C 125.542969 199.589844 126.71875 195.976562 127.664062 195.429688 C 129.3125 194.488281 133.472656 201.082031 136.53125 211.441406 C 138.09375 209.957031 137.125 205.84375 139.28125 206.277344 L 139.28125 206.261719 L 139.289062 206.277344 C 141.472656 206.648438 147.0625 215.09375 147.914062 224.234375 C 149.171875 223.527344 150.113281 221.484375 151.761719 221.40625 C 152.382812 221.378906 153.265625 222.984375 154.25 225.207031 C 154.773438 225.347656 155.363281 225.476562 156.078125 225.332031 C 154.507812 219.996094 147.285156 208.066406 148.621094 206.65625 C 149.957031 205.242188 152.546875 206.101562 154.113281 205.476562 C 146.660156 197.390625 143.675781 185.621094 145.246094 183.65625 C 146.816406 181.695312 149.328125 185.699219 151.917969 185.460938 C 145.246094 174.632812 142.734375 165.761719 144.855469 165.058594 C 146.03125 164.742188 150.113281 166.46875 152.308594 166.074219 C 140.792969 154.945312 141.796875 141.75 144.445312 143.027344 C 144.445312 142.964844 144.453125 142.90625 144.460938 142.847656 C 144.492188 142.933594 144.53125 143.011719 144.570312 143.089844 C 146.824219 144.222656 151.195312 147.445312 152.308594 146.847656 C 146.5625 138.652344 142.449219 121.792969 145.015625 121.304688 C 145.015625 121.292969 145.011719 121.277344 145.011719 121.261719 C 145.019531 121.277344 145.03125 121.285156 145.039062 121.300781 C 147.226562 120.929688 150.289062 124.644531 153.722656 124.871094 C 147.601562 117.964844 148.230469 102.113281 149.011719 101.09375 C 149.796875 100.070312 155.84375 105.171875 158.828125 106.585938 C 153.371094 98.636719 153.367188 79.347656 155.457031 79.945312 C 155.453125 79.929688 155.453125 79.917969 155.449219 79.902344 C 155.464844 79.917969 155.472656 79.933594 155.484375 79.953125 C 157.335938 80.476562 160.632812 83.023438 162.984375 84.84375 C 161.023438 82.253906 162.59375 62.632812 164.398438 59.496094 C 164.425781 59.511719 164.453125 59.53125 164.480469 59.546875 C 164.480469 59.53125 164.476562 59.511719 164.476562 59.496094 C 164.492188 59.523438 164.507812 59.550781 164.527344 59.578125 C 165.664062 60.308594 166.824219 60.738281 168.714844 62.476562 C 167.695312 53.058594 172.011719 43.25 173.503906 42.386719 L 173.546875 42.425781 C 173.558594 42.386719 173.570312 42.347656 173.582031 42.308594 C 173.601562 42.378906 173.621094 42.445312 173.640625 42.519531 C 174.488281 43.367188 175.597656 44.496094 176.566406 45.835938 C 176.722656 38.539062 183.238281 5.183594 187.160156 0.0820312 C 187.175781 0.101562 187.191406 0.125 187.207031 0.144531 C 187.21875 0.0976562 187.230469 0.0507812 187.242188 0.00390625 C 187.265625 0.0976562 187.285156 0.191406 187.308594 0.285156 C 191.246094 5.996094 197.527344 38.628906 197.761719 45.835938 C 198.78125 44.425781 199.957031 43.25 200.820312 42.386719 C 202.234375 43.25 206.628906 53.058594 205.609375 62.476562 C 207.527344 60.710938 208.699219 60.296875 209.851562 59.542969 C 209.875 59.5 209.902344 59.460938 209.925781 59.414062 C 209.925781 59.441406 209.925781 59.46875 209.925781 59.496094 C 211.730469 62.632812 213.300781 82.253906 211.339844 84.84375 C 213.816406 82.988281 217.132812 80.367188 218.957031 79.921875 C 218.980469 79.886719 219.007812 79.855469 219.03125 79.820312 C 219.027344 79.851562 219.019531 79.875 219.015625 79.90625 C 220.765625 79.03125 221.109375 98.332031 215.5 106.585938 C 218.351562 105.273438 224.3125 100.25 225.261719 101.046875 C 225.277344 101.039062 225.292969 101.023438 225.308594 101.011719 C 225.300781 101.03125 225.292969 101.046875 225.285156 101.066406 C 226.140625 102.210938 226.675781 118.015625 220.601562 124.871094 C 224.054688 124.71875 227.132812 120.964844 229.320312 121.3125 C 229.34375 121.296875 229.371094 121.277344 229.394531 121.261719 C 229.382812 121.28125 229.375 121.300781 229.363281 121.320312 C 231.808594 121.84375 227.769531 138.558594 222.015625 146.847656 C 223.15625 147.457031 227.691406 144.152344 229.898438 143.023438 C 229.9375 142.964844 229.980469 142.910156 230.019531 142.84375 C 230.019531 142.886719 230.011719 142.929688 230.003906 142.96875 C 232.417969 141.964844 233.582031 154.894531 222.015625 166.074219 C 224.066406 166.457031 228.019531 164.78125 229.34375 165.023438 L 229.394531 164.976562 C 229.386719 164.996094 229.382812 165.015625 229.378906 165.03125 C 231.8125 165.640625 228.707031 175.160156 222.40625 185.460938 C 224.917969 185.621094 227.507812 181.695312 229.078125 183.65625 C 230.648438 185.621094 227.667969 197.390625 220.207031 205.472656 C 221.398438 205.890625 223.125 205.546875 224.507812 205.964844 C 224.515625 205.957031 224.519531 205.953125 224.527344 205.949219 C 224.523438 205.953125 224.523438 205.960938 224.519531 205.96875 C 224.957031 206.101562 225.363281 206.3125 225.703125 206.652344 C 227.117188 208.066406 219.816406 219.996094 218.246094 225.332031 C 219.019531 225.488281 219.648438 225.324219 220.207031 225.171875 C 220.207031 225.171875 220.992188 223.371094 220.992188 223.367188 C 221.152344 223.136719 221.230469 222.976562 221.386719 222.742188 C 221.386719 222.757812 221.386719 222.777344 221.386719 222.792969 C 223.261719 219.566406 224.804688 223.46875 226.488281 224.3125 C 227.308594 214.628906 232.867188 208.171875 233.003906 207.910156 L 233.003906 207.972656 C 237.230469 203.140625 236.375 210.097656 237.871094 211.519531 C 241.078125 200.574219 245.359375 194.238281 246.796875 195.472656 C 246.808594 195.453125 246.8125 195.441406 246.820312 195.429688 L 246.820312 195.484375 C 247.75 196.175781 248.902344 199.546875 250.351562 200.6875 C 250.820312 186.78125 259.832031 180.417969 260.414062 182.460938 C 260.4375 182.441406 260.457031 182.417969 260.476562 182.402344 C 260.460938 182.4375 260.445312 182.46875 260.433594 182.503906 C 261.042969 184.460938 261.515625 189.316406 262.519531 189.699219 C 264.480469 181.144531 272.722656 169.449219 274.371094 170.472656 C 276.019531 171.492188 275.3125 175.730469 277.195312 178.085938 C 278.058594 170.324219 288.410156 161.679688 289.519531 161.601562 C 290.621094 161.523438 290.851562 168.273438 291.640625 170.941406 C 293.601562 162.859375 305.609375 152.261719 306.394531 153.597656 C 306.394531 153.601562 306.398438 153.601562 306.398438 153.605469 C 306.425781 153.578125 306.453125 153.550781 306.476562 153.519531 C 306.464844 153.574219 306.453125 153.628906 306.441406 153.683594 C 307.1875 155.082031 307.421875 158.667969 307.652344 161.210938 C 308.199219 158.539062 321.464844 148.417969 324.449219 147.710938 C 324.480469 147.679688 324.5 147.660156 324.527344 147.632812 C 324.507812 147.695312 324.492188 147.761719 324.472656 147.824219 C 324.710938 148.949219 325.078125 149.902344 325.078125 152.105469 C 330.371094 146.277344 338.730469 143.449219 340.425781 143.6875 C 340.464844 143.671875 340.5 143.648438 340.539062 143.628906 C 340.523438 143.652344 340.507812 143.675781 340.488281 143.699219 C 340.507812 143.703125 340.527344 143.703125 340.539062 143.710938 C 340.460938 144.730469 340.386719 146.140625 340.070312 147.554688 C 344.726562 143.597656 369.039062 128.96875 374.8125 128.269531 C 374.875 128.234375 374.9375 128.203125 375 128.167969 C 374.980469 128.195312 374.960938 128.222656 374.945312 128.253906 C 374.960938 128.253906 374.984375 128.246094 375 128.246094 C 374.058594 133.660156 356.628906 156.734375 352.15625 160.972656 Z M 352.15625 160.972656"/></g></g></g></g><path fill="#24A6F1" d="M 195.632812 93.785156 C 195.933594 91.71875 195.539062 88.898438 194.679688 86.925781 C 190.902344 78.273438 178.410156 76.628906 174.460938 89.621094 C 165.636719 89.21875 157.078125 88.4375 149.101562 87.3125 C 147.496094 73.800781 148.597656 67.230469 149.871094 59.628906 C 142.550781 58.179688 136.195312 56.300781 131.359375 54.050781 C 136.3125 47.828125 136.179688 46.011719 135.296875 44.976562 C 129.734375 43.300781 117.09375 55.199219 117.273438 60.332031 C 117.324219 61.773438 119.605469 65.601562 129.214844 56.40625 C 133.984375 58.625 140.171875 60.492188 147.292969 61.960938 C 145.0625 73.316406 145.816406 81.105469 146.691406 90.128906 C 155.28125 91.40625 164.574219 92.285156 174.171875 92.722656 C 174.363281 94.328125 174.628906 96.535156 175.988281 98.609375 C 181.5 107.023438 194.167969 103.910156 195.632812 93.785156"/><path fill="#24A6F1" d="M 171.597656 73.152344 C 179.667969 73.667969 188.0625 73.820312 196.4375 73.578125 C 200.328125 61.816406 200.914062 56.550781 201.539062 48.925781 C 204.652344 48.699219 207.726562 48.382812 210.726562 47.980469 C 214.089844 47.527344 217.191406 46.984375 220.015625 46.371094 C 224.945312 51.40625 228.207031 52.496094 230.074219 52.527344 C 233.492188 52.582031 233.957031 49.121094 229.464844 44.40625 C 226.3125 41.101562 219.585938 36.652344 215.792969 36.917969 C 214.757812 37.519531 214.335938 38.824219 218.234375 44.242188 C 215.566406 44.820312 212.636719 45.332031 209.460938 45.757812 C 206.3125 46.183594 203.074219 46.5 199.804688 46.722656 C 199.363281 56.007812 197.195312 62.851562 194.683594 70.769531 C 187.066406 70.953125 179.445312 70.789062 172.105469 70.324219 C 172.113281 63.761719 169.304688 61.765625 167.632812 61.15625 C 160.425781 58.546875 151.332031 70.445312 154.824219 77.910156 C 157.101562 82.785156 167.28125 84.789062 171.597656 73.152344"/><path fill="#24A6F1" d="M 201.328125 117.085938 C 211.609375 116.714844 221.84375 115.886719 231.671875 114.5625 C 231.738281 114.554688 231.804688 114.546875 231.875 114.539062 C 232.476562 116.15625 233.296875 118.371094 235.15625 120.257812 C 242.574219 127.769531 253.582031 122.410156 253.003906 111.566406 C 252.996094 111.433594 251.761719 98.347656 239.921875 99.125 C 234.335938 100.769531 231.695312 104.515625 231.371094 111.269531 C 231.304688 111.28125 231.238281 111.289062 231.171875 111.296875 C 220.816406 112.691406 210.003906 113.527344 199.167969 113.855469 C 194.15625 125.214844 189.269531 134.851562 184.09375 145.054688 C 170.597656 144.890625 157.351562 144.007812 145.109375 142.46875 C 143.351562 132.105469 136.574219 130.222656 134.539062 129.894531 C 124.65625 128.289062 119.339844 140.871094 126.050781 149.988281 C 131.21875 157.007812 142.222656 157.964844 145.027344 145.828125 C 157.9375 147.449219 171.964844 148.347656 186.226562 148.441406 C 194.792969 131.59375 196.84375 127.046875 201.328125 117.085938"/><path fill="#24A6F1" d="M 220.734375 177.425781 C 213.785156 178.601562 209.761719 181.621094 207.695312 187.222656 C 196.875 187.832031 185.914062 187.910156 175.246094 187.503906 C 168.851562 199.128906 167.527344 202.203125 165.125 207.785156 C 154.988281 206.960938 145.421875 205.605469 137.015625 203.773438 C 130.496094 195.613281 123.972656 194.167969 122.460938 194.589844 C 117.5625 195.953125 126.875 206.277344 134.515625 209.441406 C 136.101562 210.101562 141.058594 211.773438 138.273438 205.746094 C 146.90625 207.628906 156.789062 208.992188 167.257812 209.777344 C 169.90625 203.476562 173.195312 197.59375 177.351562 190.144531 C 187.261719 190.464844 197.410156 190.359375 207.433594 189.800781 C 207.519531 190.292969 207.578125 190.96875 207.726562 191.457031 C 210.324219 200.09375 225.980469 197.902344 230.363281 188.285156 C 231.664062 185.429688 232.691406 177.300781 220.734375 177.425781"/><g clip-path="url(#e)"><path fill="#24A6F1" d="M 286.789062 149.46875 C 283.640625 152.265625 278.96875 154.929688 272.886719 157.347656 C 272.910156 151.207031 270.796875 148.859375 266.027344 149.738281 C 256.664062 153.824219 254.03125 165.335938 256.164062 170.015625 C 258.84375 175.894531 268.210938 173.257812 272.355469 160.429688 C 278.269531 158.078125 282.832031 155.496094 285.957031 152.78125 C 285 156.289062 283.863281 159.714844 282.558594 163.0625 C 282.410156 162.148438 281.832031 161.679688 280.433594 162.304688 C 277.402344 164.628906 274.734375 168.4375 271.789062 174.652344 C 265.042969 177.789062 255.949219 180.570312 244.785156 182.769531 C 236.695312 194.210938 230.898438 200.101562 224.765625 206.339844 C 224.558594 206.371094 224.351562 206.394531 224.140625 206.421875 C 216.121094 207.503906 207.773438 208.1875 199.382812 208.503906 C 199.183594 207.410156 198.714844 204.851562 194.988281 203.210938 C 187.601562 199.960938 176.8125 204.15625 179.542969 210.886719 C 181.882812 216.660156 194.957031 218.699219 199.089844 210.355469 C 207.269531 210.046875 215.410156 209.382812 223.234375 208.332031 C 223.964844 208.234375 224.683594 208.132812 225.394531 208.03125 C 235.136719 198.878906 240.023438 192.484375 245.683594 185.066406 C 255.953125 182.957031 264.367188 180.332031 270.691406 177.390625 C 269.25 181.925781 269.542969 182.363281 270.324219 183.535156 C 270.96875 183.519531 271.671875 183.152344 272.402344 182.578125 C 254.113281 209.949219 222.941406 227.980469 187.550781 227.980469 C 140.046875 227.980469 100.132812 195.503906 88.796875 151.542969 C 90.015625 152.738281 91.511719 153.921875 93.328125 155.089844 C 98.730469 169.207031 104.140625 176.964844 109.867188 185.179688 C 116.878906 188.265625 125.960938 190.820312 136.347656 192.765625 C 136.933594 193.773438 137.761719 195.105469 138.53125 195.980469 C 145.21875 203.566406 156.195312 203.703125 156.328125 196.199219 C 156.371094 193.898438 154.9375 190.308594 151.644531 187.484375 C 145.9375 182.585938 134.628906 180.785156 135.5 190.335938 C 125.472656 188.449219 116.640625 186.015625 109.671875 183.085938 C 100.664062 170.273438 97.417969 162.058594 93.660156 152.546875 C 91.339844 151.132812 89.480469 149.695312 88.03125 148.242188 C 86.4375 141.078125 85.570312 133.644531 85.570312 126 C 85.570312 125.628906 85.59375 125.257812 85.597656 124.886719 C 86.367188 123.847656 87.078125 121.597656 87.832031 117.886719 C 89.484375 119.453125 91.640625 121.007812 94.3125 122.523438 C 97.964844 124.601562 102.390625 126.5 107.441406 128.214844 C 110.679688 143.726562 114.445312 152.136719 118.800781 161.875 C 127.417969 164.023438 137.199219 165.746094 147.679688 166.988281 C 148.050781 168.234375 148.605469 169.90625 149.28125 171.015625 C 155.222656 180.761719 169.664062 179.917969 171.679688 169.710938 C 172.273438 166.691406 171.53125 163.496094 169.585938 160.699219 C 163.9375 152.582031 149.734375 151.40625 147.480469 163.902344 C 137.59375 162.730469 128.328125 161.132812 120.070312 159.160156 C 113.925781 145.609375 111.789062 136.980469 109.226562 125.363281 C 103.617188 123.539062 98.734375 121.492188 94.765625 119.234375 C 92.105469 117.726562 89.964844 116.179688 88.316406 114.621094 C 88.867188 109.121094 88.863281 105.21875 88.3125 102.542969 C 88.9375 99.894531 89.652344 97.28125 90.480469 94.71875 C 91.523438 96.242188 93.015625 97.761719 95.03125 99.253906 C 94.503906 101.652344 93.621094 105.675781 94.933594 109.421875 C 97.171875 115.828125 103.316406 114.210938 106.667969 106.328125 C 106.71875 106.210938 111.554688 94.289062 105.234375 89.433594 C 101.804688 88.304688 98.992188 90.378906 96.113281 96.160156 C 94.082031 94.65625 92.570312 93.132812 91.535156 91.597656 C 92.394531 89.203125 93.347656 86.855469 94.378906 84.550781 C 94.394531 84.644531 94.402344 84.746094 94.421875 84.832031 C 94.4375 84.886719 95.71875 89.933594 102.796875 79.445312 C 103.980469 80.386719 105.378906 81.320312 106.996094 82.238281 C 109.789062 83.824219 113.101562 85.292969 116.847656 86.636719 C 115.28125 100.214844 116.550781 108.882812 118.015625 118.925781 C 128.1875 121.605469 140.140625 123.648438 153.023438 124.972656 C 153.246094 126.699219 153.546875 129.066406 155.039062 131.363281 C 160.957031 140.492188 174.445312 138.0625 176.90625 127.425781 C 177.929688 123 176.394531 119.519531 175.386719 117.835938 C 170.625 109.890625 157.429688 108.753906 153.328125 121.644531 C 141.195312 120.398438 129.894531 118.507812 120.152344 116.046875 C 117.738281 101.015625 118.492188 93.167969 119.371094 84.089844 C 115.214844 82.664062 111.570312 81.085938 108.546875 79.367188 C 106.960938 78.46875 105.589844 77.550781 104.429688 76.628906 C 108.265625 68.945312 108.074219 66.378906 107.484375 65.003906 C 107.316406 64.890625 107.117188 64.683594 106.921875 64.628906 C 106.675781 64.558594 106.410156 64.550781 106.128906 64.605469 C 112.128906 56.65625 119.269531 49.625 127.300781 43.734375 C 130.847656 41.632812 134.257812 39.839844 137.753906 38.003906 C 138.617188 39.128906 139.988281 40.242188 141.886719 41.324219 C 143.109375 42.015625 144.5 42.671875 146.046875 43.28125 C 144.847656 44.5 142.035156 47.355469 142.015625 49.746094 C 141.984375 53.125 147.519531 52.988281 154.132812 46.460938 C 154.210938 46.378906 162.046875 38.292969 159.417969 36.542969 C 157.761719 36.371094 154.507812 37.066406 148.398438 41.324219 C 146.941406 40.746094 145.625 40.128906 144.472656 39.472656 C 142.523438 38.371094 141.167969 37.222656 140.367188 36.066406 C 138.089844 37.128906 136.039062 38.140625 134.160156 39.109375 C 149.691406 29.542969 167.972656 24.015625 187.550781 24.015625 C 223.402344 24.015625 254.90625 42.53125 273.089844 70.503906 C 271.871094 72.289062 269.925781 74.035156 267.296875 75.695312 C 258.335938 66.097656 251.371094 60.511719 243.996094 54.589844 C 239.238281 56.679688 232.902344 58.523438 225.175781 59.964844 C 220.425781 53.632812 216.523438 52.960938 213.996094 53.003906 C 213.613281 53.113281 213.078125 53.207031 212.710938 53.371094 C 207.492188 55.765625 209.113281 67.382812 216.761719 71.523438 C 221.996094 74.359375 229.914062 72.464844 226.574219 62.539062 C 234.1875 61.121094 240.5 59.328125 245.347656 57.289062 C 256.925781 66.773438 261.910156 72.148438 268.21875 78.957031 C 271.253906 77.136719 273.476562 75.21875 274.839844 73.246094 C 276.515625 76.011719 278.066406 78.863281 279.480469 81.796875 C 279.378906 84.167969 280.09375 87.644531 281.714844 92.691406 C 278.136719 96.183594 272.035156 99.46875 263.695312 102.316406 C 263.457031 116.652344 261.136719 125.519531 258.445312 135.785156 C 251.304688 137.570312 243.148438 139.113281 234.054688 140.335938 C 232.703125 140.519531 231.347656 140.691406 229.984375 140.855469 C 227.886719 133.140625 222.40625 131.472656 219.328125 131.167969 C 208.085938 130.054688 200.328125 142.632812 206.753906 151.558594 C 212.375 159.367188 227.234375 158.152344 230.078125 144.214844 C 231.445312 144.050781 232.804688 143.878906 234.15625 143.699219 C 243.960938 142.382812 252.679688 140.691406 260.203125 138.722656 C 264.828125 123.242188 265.3125 114.8125 265.875 105.046875 C 273.679688 102.269531 279.421875 99.101562 282.863281 95.738281 C 283.558594 97.308594 285.222656 101.066406 286.777344 102.488281 C 287.5 105.550781 288.089844 108.667969 288.53125 111.828125 C 287.632812 112.867188 286.546875 113.890625 285.238281 114.894531 C 283.488281 108.699219 281.261719 106.4375 278.027344 107.542969 C 271.605469 112.597656 273.417969 128.25 278.128906 131.78125 C 281.554688 134.34375 286.34375 130.21875 285.757812 118.15625 C 287.019531 117.1875 288.074219 116.199219 288.957031 115.199219 C 289.332031 118.75 289.53125 122.351562 289.53125 126 C 289.53125 134.082031 288.5625 141.933594 286.789062 149.46875 Z M 187.550781 15.75 C 126.660156 15.75 77.300781 65.109375 77.300781 126 C 77.300781 186.890625 126.660156 236.25 187.550781 236.25 C 248.441406 236.25 297.800781 186.890625 297.800781 126 C 297.800781 65.109375 248.441406 15.75 187.550781 15.75"/></g><g fill="#FFF"><g><g><path d="M 10.75 -19.0625 C 12.15625 -19.0625 13.535156 -18.769531 14.890625 -18.1875 C 16.242188 -17.613281 17.398438 -16.84375 18.359375 -15.875 L 15.578125 -12.578125 C 14.960938 -13.335938 14.226562 -13.9375 13.375 -14.375 C 12.519531 -14.8125 11.671875 -15.03125 10.828125 -15.03125 C 9.335938 -15.03125 8.085938 -14.503906 7.078125 -13.453125 C 6.066406 -12.398438 5.5625 -11.101562 5.5625 -9.5625 C 5.5625 -7.976562 6.066406 -6.65625 7.078125 -5.59375 C 8.085938 -4.53125 9.335938 -4 10.828125 -4 C 11.617188 -4 12.441406 -4.195312 13.296875 -4.59375 C 14.148438 -4.988281 14.910156 -5.523438 15.578125 -6.203125 L 18.390625 -3.234375 C 17.359375 -2.191406 16.144531 -1.351562 14.75 -0.71875 C 13.351562 -0.09375 11.960938 0.21875 10.578125 0.21875 C 7.734375 0.21875 5.363281 -0.707031 3.46875 -2.5625 C 1.582031 -4.414062 0.640625 -6.726562 0.640625 -9.5 C 0.640625 -12.21875 1.601562 -14.488281 3.53125 -16.3125 C 5.457031 -18.144531 7.863281 -19.0625 10.75 -19.0625 Z M 10.75 -19.0625" transform="translate(23.456 275.854)"/></g></g></g><g fill="#FFF"><g><g><path d="M 14.4375 -3.484375 L 6.1875 -3.484375 L 4.8125 0 L -0.140625 0 L 8.015625 -18.90625 L 12.953125 -18.90625 L 20.921875 0 L 15.796875 0 Z M 13.046875 -7.125 L 10.34375 -14.125 L 7.59375 -7.125 Z M 13.046875 -7.125" transform="translate(43.49 275.854)"/></g></g></g><g fill="#FFF"><g><g><path d="M 19.328125 0 L 15.09375 0 L 6.40625 -11.640625 L 6.40625 0 L 1.890625 0 L 1.890625 -18.90625 L 6.125 -18.90625 L 14.84375 -7.234375 L 14.84375 -18.90625 L 19.328125 -18.90625 Z M 19.328125 0" transform="translate(65.63 275.854)"/></g></g></g><g fill="#FFF"><g><g><path d="M 1.890625 -18.90625 L 10.015625 -18.90625 C 12.984375 -18.90625 15.398438 -18.03125 17.265625 -16.28125 C 19.128906 -14.53125 20.0625 -12.253906 20.0625 -9.453125 C 20.0625 -6.660156 19.113281 -4.382812 17.21875 -2.625 C 15.332031 -0.875 12.867188 0 9.828125 0 L 1.890625 0 Z M 6.703125 -15.0625 L 6.703125 -3.828125 L 10.125 -3.828125 C 11.601562 -3.828125 12.8125 -4.34375 13.75 -5.375 C 14.695312 -6.414062 15.171875 -7.765625 15.171875 -9.421875 C 15.171875 -11.078125 14.675781 -12.429688 13.6875 -13.484375 C 12.695312 -14.535156 11.4375 -15.0625 9.90625 -15.0625 Z M 6.703125 -15.0625" transform="translate(132.914 275.854)"/></g></g></g><g fill="#FFF"><g><g><path d="M 16.328125 -15.03125 L 10.640625 -15.03125 L 10.640625 0 L 5.828125 0 L 5.828125 -15.03125 L 0.1875 -15.03125 L 0.1875 -18.921875 L 16.328125 -18.921875 Z M 16.328125 -15.03125" transform="translate(177.113 275.854)"/></g></g></g><g fill="#FFF"><g><g><path d="M 1.640625 -3.671875 C 2.054688 -4.085938 2.597656 -4.296875 3.265625 -4.296875 C 3.929688 -4.296875 4.472656 -4.085938 4.890625 -3.671875 C 5.316406 -3.253906 5.53125 -2.710938 5.53125 -2.046875 C 5.53125 -1.378906 5.316406 -0.832031 4.890625 -0.40625 C 4.472656 0.0078125 3.929688 0.21875 3.265625 0.21875 C 2.597656 0.21875 2.054688 0.0078125 1.640625 -0.40625 C 1.234375 -0.832031 1.03125 -1.378906 1.03125 -2.046875 C 1.03125 -2.710938 1.234375 -3.253906 1.640625 -3.671875 Z M 1.640625 -3.671875" transform="translate(217.1 275.854)"/></g></g></g><g fill="#FFF"><g><g><path d="M 22.65625 0 L 18.40625 0 L 18.390625 -12.28125 L 13.84375 -1.890625 L 10.71875 -1.890625 L 6.1875 -12.28125 L 6.1875 0 L 1.890625 0 L 1.890625 -18.921875 L 7.15625 -18.921875 L 12.28125 -7.671875 L 17.421875 -18.921875 L 22.65625 -18.921875 Z M 22.65625 0" transform="translate(225.011 275.854)"/></g></g></g><g fill="#FFF"><g><g><path d="M 13.28125 0 L 10.46875 -5.3125 L 6.703125 -5.3125 L 6.703125 0 L 1.890625 0 L 1.890625 -18.90625 L 10.34375 -18.90625 C 12.84375 -18.90625 14.773438 -18.332031 16.140625 -17.1875 C 17.515625 -16.039062 18.203125 -14.414062 18.203125 -12.3125 C 18.203125 -9.394531 17.054688 -7.367188 14.765625 -6.234375 L 18.734375 0 Z M 6.703125 -9.09375 L 10.34375 -9.09375 C 11.382812 -9.09375 12.191406 -9.351562 12.765625 -9.875 C 13.347656 -10.40625 13.640625 -11.164062 13.640625 -12.15625 C 13.640625 -13.125 13.347656 -13.859375 12.765625 -14.359375 C 12.191406 -14.867188 11.382812 -15.125 10.34375 -15.125 L 6.703125 -15.125 Z M 6.703125 -9.09375" transform="translate(273.071 275.854)"/></g></g></g><g fill="#FFF"><g><g><path d="M 14.203125 0 L 9.203125 -7.421875 L 6.703125 -4.640625 L 6.703125 0 L 1.890625 0 L 1.890625 -18.90625 L 6.703125 -18.90625 L 6.703125 -10.71875 L 13.9375 -18.90625 L 19.5 -18.90625 L 12.46875 -11.0625 L 19.953125 0 Z M 14.203125 0" transform="translate(293.97 275.854)"/></g></g></g><g fill="#FFF"><g><g><path d="M 16.6875 -15.125 L 6.703125 -15.125 L 6.703125 -11.359375 L 15.71875 -11.359375 L 15.71875 -7.59375 L 6.703125 -7.59375 L 6.703125 -3.78125 L 16.984375 -3.78125 L 16.984375 0 L 1.890625 0 L 1.890625 -18.90625 L 16.6875 -18.90625 Z M 16.6875 -15.125" transform="translate(315.488 275.854)"/></g></g></g></svg>