<svg width="36" height="35" viewBox="0 0 36 35" fill="none" xmlns="http://www.w3.org/2000/svg">
<path d="M10.3927 14.5958C9.21063 14.5958 8.0285 14.2104 7.24043 13.247L1.32987 7.46648C-0.443292 5.73233 -0.443292 3.03476 1.32987 1.30061C3.10304 -0.433538 5.86131 -0.433538 7.63447 1.30061L13.545 7.08111C15.3182 8.81526 15.3182 11.5128 13.545 13.247C12.757 14.2104 11.5748 14.5958 10.3927 14.5958Z" fill="#283375"/>
<path d="M24.9721 14.5958C23.79 14.5958 22.6079 14.2104 21.8199 13.247C20.0467 11.5128 20.0467 8.81526 21.8199 7.08111L27.7304 1.30061C29.5036 -0.433538 32.2618 -0.433538 34.035 1.30061C35.8082 3.03476 35.8082 5.73233 34.035 7.46648L28.1244 13.247C27.1394 14.2104 25.9572 14.5958 24.9721 14.5958Z" fill="#283375"/>
<path d="M4.48218 34.4422C3.30007 34.4422 2.11795 34.0568 1.32987 33.0934C-0.443292 31.3593 -0.443292 28.6617 1.32987 26.9276L7.24043 21.147C9.01359 19.4129 11.7719 19.4129 13.545 21.147C15.3182 22.8812 15.3182 25.5788 13.545 27.3129L7.63447 33.0934C6.8464 34.0568 5.66429 34.4422 4.48218 34.4422Z" fill="#283375"/>
<path d="M30.8827 34.4422C29.7006 34.4422 28.5185 34.0568 27.7304 33.0934L21.8199 27.3129C20.0467 25.5788 20.0467 22.8812 21.8199 21.147C23.593 19.4129 26.3513 19.4129 28.1244 21.147L34.035 26.9276C35.8082 28.6617 35.8082 31.3593 34.035 33.0934C33.0499 34.0568 31.8678 34.4422 30.8827 34.4422Z" fill="#283375"/>
</svg>
