<?xml version="1.0" encoding="utf-8"?>
<!-- Generator: Adobe Illustrator 25.0.0, SVG Export Plug-In . SVG Version: 6.00 Build 0)  -->
<svg version="1.1" id="Layer_1" xmlns="http://www.w3.org/2000/svg" xmlns:xlink="http://www.w3.org/1999/xlink" x="0px" y="0px"
	 viewBox="500 500 1000 1000" style="enable-background:new 0 0 2000 2000;" xml:space="preserve" >
<style type="text/css">
	.st0{display:none;}
	.st1{fill:#000022;}
	.st2{display:none;fill:#FFFFFF;stroke:#000000;stroke-miterlimit:10;}
	.st3{fill:url(#SVGID_1_);}
	.st4{fill:url(#SVGID_2_);}
	.st5{fill:url(#SVGID_3_);}
	.st6{fill:url(#SVGID_4_);}
	.st7{fill:url(#SVGID_5_);}
	.st8{fill:url(#SVGID_6_);}
	.st9{fill:url(#SVGID_7_);}
	.st10{fill:url(#SVGID_8_);}
	.st11{fill:url(#SVGID_9_);}
	.st12{fill:url(#SVGID_10_);}
	.st13{fill:url(#SVGID_11_);}
	.st14{fill:url(#SVGID_12_);}
	.st15{fill:url(#SVGID_13_);}
	.st16{fill:url(#SVGID_14_);}
	.st17{fill:url(#SVGID_15_);}
	.st18{fill:url(#SVGID_16_);}
	.st19{fill:url(#SVGID_17_);}
	.st20{fill:url(#SVGID_18_);}
	.st21{fill:url(#SVGID_19_);}
	.st22{fill:url(#SVGID_20_);}
	.st23{fill:url(#SVGID_21_);}
	.st24{fill:url(#SVGID_22_);}
</style>
<rect class="st0" width="2000" height="2000"/>
<g>
	<g>
		<linearGradient id="SVGID_1_" gradientUnits="userSpaceOnUse" x1="589.0438" y1="1462.1862" x2="589.0438" y2="1353.5352">
			<stop  offset="0" style="stop-color:#1C75BC"/>
			<stop  offset="0.5108" style="stop-color:#00AEEF"/>
			<stop  offset="1" style="stop-color:#1485CA"/>
		</linearGradient>
		<path class="st3" d="M640.04,1316.42v142.5h-9.77v-22.19c-8.35,15.27-24.84,23.82-41.94,23.82c-28.09,0-50.28-18.53-50.28-51.91
			c0-33.18,22.39-51.91,50.49-51.91c17.31,0,33.59,7.33,41.73,23.62v-63.92H640.04z M547.82,1408.64
			c0,27.89,18.53,42.14,41.13,42.14c23.61,0,41.12-17.3,41.12-42.34c0-25.04-17.91-42.14-41.12-42.14
			C566.34,1366.29,547.82,1380.34,547.82,1408.64z"/>
		<linearGradient id="SVGID_2_" gradientUnits="userSpaceOnUse" x1="715.8751" y1="1462.1862" x2="715.8751" y2="1353.5352">
			<stop  offset="0" style="stop-color:#1C75BC"/>
			<stop  offset="0.5108" style="stop-color:#00AEEF"/>
			<stop  offset="1" style="stop-color:#1485CA"/>
		</linearGradient>
		<path class="st4" d="M665.29,1408.64c0-30.13,22.8-51.91,51.1-51.91c28.3,0,53.54,17.31,49.67,56.6h-90.59
			c2.04,23.61,20.15,37.25,40.92,37.25c13.23,0,28.7-5.29,36.24-15.27l7.12,5.7c-9.77,12.83-27.28,19.34-43.36,19.34
			C688.09,1460.35,665.29,1440.6,665.29,1408.64z M757.1,1404.56c-0.2-24.84-16.49-38.68-40.71-38.68
			c-20.77,0-38.68,14.05-40.92,38.68H757.1z"/>
		<linearGradient id="SVGID_3_" gradientUnits="userSpaceOnUse" x1="796.9183" y1="1462.1862" x2="796.9183" y2="1353.5352">
			<stop  offset="0" style="stop-color:#1C75BC"/>
			<stop  offset="0.5108" style="stop-color:#00AEEF"/>
			<stop  offset="1" style="stop-color:#1485CA"/>
		</linearGradient>
		<path class="st5" d="M801.91,1316.42v142.5h-9.98v-142.5H801.91z"/>
		<linearGradient id="SVGID_4_" gradientUnits="userSpaceOnUse" x1="855.9559" y1="1462.1862" x2="855.9559" y2="1353.5352">
			<stop  offset="0" style="stop-color:#1C75BC"/>
			<stop  offset="0.5108" style="stop-color:#00AEEF"/>
			<stop  offset="1" style="stop-color:#1485CA"/>
		</linearGradient>
		<path class="st6" d="M852.8,1328.02v30.33H887v8.35h-34.2v61.28c0,13.64,2.85,23.21,18.52,23.21c4.89,0,10.39-1.63,15.47-4.07
			l3.46,8.14c-6.31,3.05-12.62,5.09-18.94,5.09c-21.38,0-28.3-12.62-28.3-32.37v-61.28h-21.38v-8.35h21.38v-29.32L852.8,1328.02z"/>
		<linearGradient id="SVGID_5_" gradientUnits="userSpaceOnUse" x1="955.6144" y1="1462.1862" x2="955.6144" y2="1353.5352">
			<stop  offset="0" style="stop-color:#1C75BC"/>
			<stop  offset="0.5108" style="stop-color:#00AEEF"/>
			<stop  offset="1" style="stop-color:#1485CA"/>
		</linearGradient>
		<path class="st7" d="M1006.71,1358.35c0,33.59,0,66.98,0,100.57h-9.98v-21.38c-9.77,15.68-24.83,23.01-41.12,23.01
			c-28.09,0-51.1-21.17-51.1-51.91c0-30.74,23.01-51.51,51.1-51.51c16.29,0,32.78,7.53,41.12,23.21v-21.99H1006.71z M914.49,1408.64
			c0,25.24,18.32,42.14,41.12,42.14c55.98,0,55.98-84.08,0-84.08C932.81,1366.7,914.49,1383.39,914.49,1408.64z"/>
		<linearGradient id="SVGID_6_" gradientUnits="userSpaceOnUse" x1="1094.3661" y1="1462.1862" x2="1094.3661" y2="1353.5352">
			<stop  offset="0" style="stop-color:#1C75BC"/>
			<stop  offset="0.5108" style="stop-color:#00AEEF"/>
			<stop  offset="1" style="stop-color:#1485CA"/>
		</linearGradient>
		<path class="st8" d="M1157.98,1386.45c0.61,36.03-21.38,72.47-71.25,72.47c-17.51,0-38.47,0-55.98,0v-142.5
			c17.51,0,38.47,0,55.98,0C1135.58,1316.42,1157.37,1351.23,1157.98,1386.45z M1057.41,1433.06h29.32
			c32.37,0,45.19-23.61,44.58-46.82c-0.61-22.19-13.64-44.38-44.58-44.38h-29.32V1433.06z"/>
		<linearGradient id="SVGID_7_" gradientUnits="userSpaceOnUse" x1="1388.7631" y1="1462.1783" x2="1388.7631" y2="1353.5275">
			<stop  offset="0" style="stop-color:#1C75BC"/>
			<stop  offset="0.5108" style="stop-color:#00AEEF"/>
			<stop  offset="1" style="stop-color:#1485CA"/>
		</linearGradient>
		<path class="st9" d="M1461.95,1388.48c-0.41,36.85-23.01,73.7-73.08,73.7c-50.08,0-73.29-36.03-73.29-73.49
			c0-37.46,24.02-75.12,73.29-75.12C1437.92,1313.57,1462.36,1351.23,1461.95,1388.48z M1342.04,1389.09
			c0.61,23.41,13.24,48.45,46.83,48.45s46.21-25.24,46.62-48.65c0.41-24.02-13.03-50.9-46.62-50.9S1341.43,1365.07,1342.04,1389.09z
			"/>
		<linearGradient id="SVGID_8_" gradientUnits="userSpaceOnUse" x1="1236.5405" y1="1462.1862" x2="1236.5405" y2="1353.5352">
			<stop  offset="0" style="stop-color:#1C75BC"/>
			<stop  offset="0.5108" style="stop-color:#00AEEF"/>
			<stop  offset="1" style="stop-color:#1485CA"/>
		</linearGradient>
		<path class="st10" d="M1285.8,1458.9h29.3l-10.98-24.51l-52.94-117.97h-29.3l-52.94,117.97l-10.98,24.51h29.1l0.13-0.3h98.46
			L1285.8,1458.9z M1236.54,1346.32l37.94,86.74h-76.05L1236.54,1346.32z"/>
	</g>
	<g>
		<linearGradient id="SVGID_9_" gradientUnits="userSpaceOnUse" x1="1013.5455" y1="954.4145" x2="1349.5885" y2="954.4145">
			<stop  offset="0" style="stop-color:#1C75BC"/>
			<stop  offset="0.5108" style="stop-color:#00AEEF"/>
			<stop  offset="1" style="stop-color:#1485CA"/>
		</linearGradient>
		<path class="st11" d="M1334.41,856.42c-8.37,0-15.18,6.81-15.18,15.18c0,3.29,1.08,6.31,2.86,8.8l-53.86,53.86h-52.11v-93.37
			l36.56-36.56c3.19,1.68,6.82,2.64,10.66,2.64c12.67,0,22.99-10.31,22.99-22.99s-10.31-22.99-22.99-22.99
			c-12.67,0-22.99,10.32-22.99,22.99c0,4.48,1.31,8.65,3.54,12.19l-39.75,39.75v99.85l-33.69,33.69v-58.98
			c6.84-2.47,11.77-8.96,11.77-16.65c0-9.79-7.97-17.76-17.76-17.76c-9.79,0-17.76,7.97-17.76,17.76c0,7.68,4.93,14.18,11.77,16.65
			v70.95l-57.3,57.31h-41.73v-56.1l43.82-43.82v-5.65l0.24-0.24l-0.24-0.24V826.09l52.09-52.09v-53.7l32.85-32.85
			c2.67,1.55,5.73,2.5,9.04,2.5c10.03,0,18.2-8.16,18.2-18.2s-8.16-18.2-18.2-18.2c-10.03,0-18.2,8.16-18.2,18.2
			c0,3.84,1.21,7.39,3.24,10.33l-34.91,34.92v53.7l-48.1,48.1l-24.76-24.76v-36.65l15.98-15.99c3.11,2.34,6.94,3.78,11.12,3.78
			c10.25,0,18.6-8.34,18.6-18.6c0-10.25-8.34-18.6-18.6-18.6c-10.26,0-18.6,8.34-18.6,18.6c0,3.17,0.87,6.11,2.28,8.73l-18.77,18.77
			v43.26l28.75,28.75v98.63l-29.47-29.46v-33.85c8.92-2.61,15.49-10.77,15.49-20.52c0-11.84-9.63-21.47-21.48-21.47
			c-11.84,0-21.47,9.63-21.47,21.47c0,9.75,6.57,17.91,15.49,20.52v38.81l38.38,38.37l-40.75,40.75v63.75l-37.91,37.91v174.28h7.98
			v-90.86l42.16-42.16h67.63l114.72-112.02c2.15,1.07,4.54,1.73,7.1,1.73c8.87,0,16.07-7.21,16.07-16.07s-7.21-16.07-16.07-16.07
			c-8.87,0-16.08,7.21-16.08,16.07c0,3.4,1.07,6.54,2.88,9.14l-111.88,109.24h-67.68l-38.86,38.86v-68.82l33.92-33.92v0.34h50.68
			l63.31-63.32l45.16-45.16h56.93l56.77-56.77c1.87,0.83,3.93,1.3,6.1,1.3c8.37,0,15.18-6.81,15.18-15.18
			C1349.59,863.23,1342.78,856.42,1334.41,856.42z M1263.34,770.55c7.41,0,13.43,6.03,13.43,13.44c0,7.41-6.03,13.43-13.43,13.43
			s-13.43-6.03-13.43-13.43C1249.91,776.57,1255.94,770.55,1263.34,770.55z M1197.24,660.32c6.3,0,11.43,5.13,11.43,11.43
			s-5.13,11.43-11.43,11.43s-11.43-5.13-11.43-11.43S1190.93,660.32,1197.24,660.32z M1101.62,714.91c6.44,0,11.68,5.24,11.68,11.68
			c0,6.44-5.24,11.68-11.68,11.68c-6.44,0-11.68-5.24-11.68-11.68C1089.93,720.15,1095.17,714.91,1101.62,714.91z M1046.33,840.89
			c0-7.44,6.05-13.49,13.49-13.49c7.44,0,13.49,6.05,13.49,13.49s-6.05,13.49-13.49,13.49
			C1052.38,854.38,1046.33,848.33,1046.33,840.89z M1253.15,986.68c5.08,0,9.2,4.13,9.2,9.2s-4.13,9.2-9.2,9.2
			c-5.08,0-9.21-4.13-9.21-9.2S1248.07,986.68,1253.15,986.68z M1153.31,893.84c0-6.15,5-11.16,11.15-11.16s11.16,5.01,11.16,11.16
			c0,6.15-5.01,11.15-11.16,11.15S1153.31,899.99,1153.31,893.84z M1334.41,880.3c-4.8,0-8.69-3.9-8.69-8.69
			c0-4.8,3.9-8.69,8.69-8.69s8.69,3.9,8.69,8.69C1343.1,876.4,1339.2,880.3,1334.41,880.3z"/>
		<linearGradient id="SVGID_10_" gradientUnits="userSpaceOnUse" x1="654.8324" y1="1091.733" x2="943.1943" y2="1091.733">
			<stop  offset="0" style="stop-color:#1C75BC"/>
			<stop  offset="0.5108" style="stop-color:#00AEEF"/>
			<stop  offset="1" style="stop-color:#1485CA"/>
		</linearGradient>
		<path class="st12" d="M894.99,1039.89c6.46-1.77,11.25-7.63,11.25-14.64c0-8.41-6.84-15.24-15.24-15.24s-15.24,6.83-15.24,15.24
			c0,7.01,4.79,12.87,11.25,14.64v42.02l-36.21-36.21v-37.28l-14.67-14.67c2.43-3.36,3.9-7.45,3.9-11.9
			c0-11.26-9.16-20.43-20.43-20.43c-11.26,0-20.43,9.17-20.43,20.43c0,11.26,9.16,20.43,20.43,20.43c3.92,0,7.56-1.17,10.67-3.09
			l12.54,12.55v31.64h-66.67l-81.16-81.16c2.31-3.47,3.66-7.63,3.66-12.1c0-12.08-9.83-21.91-21.9-21.91s-21.9,9.83-21.9,21.91
			s9.83,21.9,21.9,21.9c4.73,0,9.1-1.52,12.68-4.07l83.42,83.42h72.31l90.06,90.06v113.86h7.98V1138.1l-48.21-48.21V1039.89z
			 M881.36,1025.25c0-5.31,4.32-9.64,9.64-9.64s9.64,4.33,9.64,9.64c0,5.31-4.32,9.64-9.64,9.64S881.36,1030.57,881.36,1025.25z
			 M806.76,981.84c0-7.08,5.76-12.83,12.83-12.83c7.08,0,12.83,5.76,12.83,12.83s-5.76,12.83-12.83,12.83
			C812.52,994.68,806.76,988.92,806.76,981.84z M663.93,950.1c0-7.06,5.74-12.81,12.8-12.81c7.06,0,12.8,5.75,12.8,12.81
			c0,7.06-5.74,12.8-12.8,12.8C669.68,962.9,663.93,957.16,663.93,950.1z"/>
		<linearGradient id="SVGID_11_" gradientUnits="userSpaceOnUse" x1="650.4114" y1="896.5483" x2="1074.355" y2="896.5483">
			<stop  offset="0" style="stop-color:#1C75BC"/>
			<stop  offset="0.5108" style="stop-color:#00AEEF"/>
			<stop  offset="1" style="stop-color:#1485CA"/>
		</linearGradient>
		<path class="st13" d="M1027.37,960.3v-44.94c6.36-1.76,11.08-7.55,11.08-14.46c0-8.31-6.76-15.07-15.07-15.07
			s-15.06,6.76-15.06,15.07c0,6.92,4.71,12.7,11.07,14.46V957l-39.05,39.05V870.3l36.77-34.89V715.33l39.6-45.26v-85.78
			c10.14-2.66,17.64-11.87,17.64-22.83c0-13.03-10.6-23.63-23.63-23.63s-23.63,10.6-23.63,23.63c0,10.96,7.51,20.17,17.64,22.83
			v81.28l-39.6,45.26v60.92l-35.68-35.68v-97.41c8.88-1.85,15.58-9.73,15.58-19.16c0-10.79-8.78-19.57-19.57-19.57
			c-10.79,0-19.57,8.78-19.57,19.57c0,9.42,6.7,17.31,15.58,19.16v100.71l43.66,43.66v47.22l-32.13,30.48l-64.96-64.96v-127.2
			c8.29-1.83,14.52-9.22,14.52-18.06c0-10.21-8.31-18.52-18.52-18.52c-10.21,0-18.52,8.31-18.52,18.52
			c0,8.84,6.23,16.22,14.52,18.06v68.11l-47.58-47.58v-82.1c7.03-1.79,12.27-8.12,12.27-15.71c0-8.96-7.29-16.26-16.26-16.26
			s-16.26,7.29-16.26,16.26c0,7.58,5.24,13.91,12.27,15.71v85.4l55.57,55.57v51.1l68.29,68.29v184.42l-35.82-35.82v-34.16l0.24-0.24
			l-0.24-0.24v-74.21c9.94-1.88,17.48-10.6,17.48-21.07c0-11.84-9.63-21.47-21.48-21.47c-11.84,0-21.48,9.63-21.48,21.47
			c0,10.48,7.55,19.19,17.48,21.07v66.23l-42.56-42.56v-41.46l-31.2-31.2v-80.27l-97.55-97.55c2.58-3.26,4.19-7.33,4.19-11.8
			c0-10.54-8.58-19.12-19.12-19.12c-10.54,0-19.12,8.58-19.12,19.12s8.58,19.12,19.12,19.12c3.17,0,6.11-0.85,8.75-2.22l95.75,95.75
			v68.98l-39.83-39.83c2.5-3.79,3.96-8.31,3.96-13.18c0-13.25-10.78-24.03-24.03-24.03s-24.03,10.78-24.03,24.03
			c0,13.25,10.78,24.03,24.03,24.03c4.04,0,7.85-1.01,11.2-2.78l75.91,75.91v34.99H802.9L693.91,820.3
			c3.27-4.15,5.25-9.37,5.25-15.06c0-13.44-10.93-24.37-24.37-24.37s-24.37,10.93-24.37,24.37s10.93,24.37,24.37,24.37
			c4.87,0,9.41-1.45,13.22-3.93l111.59,111.59h71.94l52.78,52.78l0.24-0.24v29.48l43.8,43.8v192.18h11.98v-247.93L1027.37,960.3z
			 M1013.91,900.9c0-5.22,4.25-9.47,9.47-9.47s9.47,4.25,9.47,9.47s-4.25,9.47-9.47,9.47S1013.91,906.12,1013.91,900.9z
			 M1036.91,561.45c0-7.62,6.2-13.82,13.82-13.82s13.82,6.2,13.82,13.82s-6.2,13.82-13.82,13.82S1036.91,569.07,1036.91,561.45z
			 M953.16,619.52c0-6.78,5.52-12.3,12.3-12.3c6.78,0,12.3,5.52,12.3,12.3c0,6.78-5.52,12.3-12.3,12.3
			C958.68,631.81,953.16,626.3,953.16,619.52z M840.21,591.31c0-4.56,3.71-8.27,8.27-8.27s8.27,3.71,8.27,8.27
			c0,4.57-3.71,8.28-8.27,8.28S840.21,595.88,840.21,591.31z M892.43,650.52c0-6.41,5.22-11.63,11.63-11.63s11.63,5.22,11.63,11.63
			c0,6.41-5.22,11.63-11.63,11.63S892.43,656.94,892.43,650.52z M915.06,886.06c0-7.44,6.05-13.49,13.49-13.49
			s13.49,6.05,13.49,13.49c0,7.44-6.05,13.49-13.49,13.49S915.06,893.5,915.06,886.06z M726.3,668.52c0-6.62,5.39-12.01,12.01-12.01
			c6.62,0,12.01,5.39,12.01,12.01c0,6.62-5.39,12.01-12.01,12.01C731.69,680.54,726.3,675.15,726.3,668.52z M768.86,797.15
			c0-7.75,6.3-14.05,14.05-14.05s14.05,6.3,14.05,14.05c0,3.66-1.44,6.97-3.75,9.48l-0.83,0.82c-2.5,2.3-5.81,3.75-9.48,3.75
			C775.16,811.2,768.86,804.9,768.86,797.15z M660.54,805.24c0-7.86,6.39-14.25,14.25-14.25c7.86,0,14.25,6.39,14.25,14.25
			s-6.39,14.25-14.25,14.25C666.93,819.48,660.54,813.09,660.54,805.24z"/>
	</g>
</g>
</svg>
