<svg width="76" height="47" viewBox="0 0 76 47" xmlns="http://www.w3.org/2000/svg">
<path fill-rule="evenodd" clip-rule="evenodd" d="M62.2831 20.3571L66.0598 27.8581L71.75 31.6252V38.6785H69.3501C68.5059 36.3065 66.2277 34.6071 63.55 34.6071C60.8723 34.6071 58.5941 36.3065 57.7499 38.6785H48.8501C48.0059 36.3065 45.7277 34.6071 43.05 34.6071C40.3723 34.6071 38.0941 36.3065 37.2499 38.6785H34.85V20.3571H62.2831ZM71.75 42.7499H69.3501C68.5059 45.1219 66.2277 46.8214 63.55 46.8214C60.8723 46.8214 58.5941 45.1219 57.7499 42.7499H48.8501C48.0059 45.1219 45.7277 46.8214 43.05 46.8214C40.3723 46.8214 38.0941 45.1219 37.2499 42.7499H34.85C32.5856 42.7499 30.75 40.9272 30.75 38.6785V20.3571C30.75 18.1085 32.5856 16.2856 34.85 16.2856H62.2831C63.836 16.2856 65.2556 17.1569 65.9501 18.5363L69.2402 25.0704L75.85 29.4461V38.6785C75.85 40.9272 74.0144 42.7499 71.75 42.7499ZM45.1 40.7142C45.1 41.8385 44.1822 42.7499 43.05 42.7499C41.9178 42.7499 41 41.8385 41 40.7142C41 39.5899 41.9178 38.6785 43.05 38.6785C44.1822 38.6785 45.1 39.5899 45.1 40.7142ZM65.6 40.7142C65.6 41.8385 64.6822 42.7499 63.55 42.7499C62.4178 42.7499 61.5 41.8385 61.5 40.7142C61.5 39.5899 62.4178 38.6785 63.55 38.6785C64.6822 38.6785 65.6 39.5899 65.6 40.7142Z" />
<path fill-rule="evenodd" clip-rule="evenodd" d="M10.187 28.6647L12.3 30.5347L14.413 28.6647C21.1603 22.6935 24.6 17.3893 24.6 12.4242C24.6 5.37516 19.1523 0 12.3 0C5.44761 0 0 5.37516 0 12.4242C0 17.3893 3.43968 22.6935 10.187 28.6647ZM12.3 4.07143C16.8938 4.07143 20.5 7.62959 20.5 12.4242C20.5 15.8231 17.8391 20.0455 12.3 25.0741C6.7609 20.0455 4.1 15.8231 4.1 12.4242C4.1 7.62959 7.70611 4.07143 12.3 4.07143ZM12.3 6.10714C15.6965 6.10714 18.45 8.84141 18.45 12.2143C18.45 15.5872 15.6965 18.3214 12.3 18.3214C8.90346 18.3214 6.15 15.5872 6.15 12.2143C6.15 8.84141 8.90346 6.10714 12.3 6.10714ZM10.25 12.2143C10.25 11.09 11.1678 10.1786 12.3 10.1786C13.4322 10.1786 14.35 11.09 14.35 12.2143C14.35 13.3386 13.4322 14.25 12.3 14.25C11.1678 14.25 10.25 13.3386 10.25 12.2143Z" />
</svg>
