<svg width="21" height="24" viewBox="0 0 21 24"  xmlns="http://www.w3.org/2000/svg">
<path d="M19 13C17.897 13 17 13.896 17 15V17.5C17 18.327 16.327 19 15.5 19C14.673 19 14 18.327 14 17.5V9.119L10.5 2.119L7 9.119V17.5C7 18.327 6.327 19 5.5 19C4.673 19 4 18.327 4 17.5V15C4 13.896 3.102 13 2 13C0.898 13 0 13.896 0 15V17C0 17.276 0.224 17.5 0.5 17.5C0.776 17.5 1 17.276 1 17V15C1 14.449 1.448 14 2 14C2.552 14 3 14.449 3 15V17.5C3 18.879 4.121 20 5.5 20C6.879 20 8 18.879 8 17.5V16H9V20C9 21.654 7.654 23 6 23C4.262 23 3 21.844 3 20.25C3 19.974 2.776 19.75 2.5 19.75C2.224 19.75 2 19.974 2 20.25C2 22.388 3.72 24 6 24C8.206 24 10 22.206 10 20V16H11V20C11 22.169 12.889 24 15.125 24C17.406 24 19.063 22.423 19.063 20.25C19.063 19.974 18.839 19.75 18.563 19.75C18.287 19.75 18.063 19.974 18.063 20.25C18.063 21.844 16.828 23 15.125 23C13.431 23 12 21.626 12 20V16H13V17.5C13 18.879 14.121 20 15.5 20C16.879 20 18 18.879 18 17.5V15C18 14.449 18.448 14 19 14C19.552 14 20 14.449 20 15V16C20 16.276 20.224 16.5 20.5 16.5C20.776 16.5 21 16.276 21 16V15C21 13.896 20.103 13 19 13Z" />
<path d="M16.967 6.734L10.938 0.729004C10.933 0.737004 10.927 0.744004 10.923 0.751004C10.929 0.761004 10.941 0.765004 10.947 0.775004L15.059 9H16.032C17.041 9 17.379 8.547 17.49 8.276C17.602 8.007 17.682 7.447 16.967 6.734Z" />
<path d="M10.063 0.730004L4.061 6.732C3.348 7.446 3.43 8.006 3.541 8.276C3.653 8.547 3.991 9 5 9H5.941L10.052 0.776004C10.058 0.765004 10.071 0.761004 10.076 0.752004C10.073 0.744004 10.067 0.737004 10.063 0.730004Z" />
</svg>
