<svg width="25" height="26" viewBox="0 0 25 26" fill="none" xmlns="http://www.w3.org/2000/svg">
<path d="M11.1252 9.73027C16.7173 9.73027 21.2505 7.82225 21.2505 5.46858C21.2505 3.11492 16.7173 1.20689 11.1252 1.20689C5.53322 1.20689 1 3.11492 1 5.46858C1 7.82225 5.53322 9.73027 11.1252 9.73027Z" stroke="currentColor" stroke-width="1.5" stroke-miterlimit="10" stroke-linecap="round"/>
<path d="M11.1252 13.9957C5.53736 13.9957 1 12.0884 1 9.73399" stroke="currentColor" stroke-width="1.5" stroke-miterlimit="10" stroke-linecap="round"/>
<path d="M9.5271 18.7379C4.68427 18.4176 1 16.6555 1 14.5284" stroke="currentColor" stroke-width="1.5" stroke-miterlimit="10" stroke-linecap="round"/>
<path d="M10.0785 23.5659C4.9898 23.3386 1.01868 21.5281 1.01868 19.3265V5.47231" stroke="currentColor" stroke-width="1.5" stroke-miterlimit="10" stroke-linecap="round"/>
<path d="M21.2467 5.4686V10.2667" stroke="currentColor" stroke-width="1.5" stroke-miterlimit="10" stroke-linecap="round"/>
<path d="M24 13.5L17.2586 21.0345L14.8793 18.2586" stroke="currentColor" stroke-width="1.5" stroke-linecap="round" stroke-linejoin="round"/>
<path d="M23.426 17.7805C23.7245 19.0875 23.5694 20.4571 22.9862 21.6642C22.403 22.8713 21.4264 23.844 20.2169 24.4223C19.0075 25.0006 17.6372 25.1502 16.3315 24.8463C15.0258 24.5425 13.8623 23.8034 13.0325 22.7505C12.2026 21.6976 11.7557 20.3937 11.7653 19.0531C11.775 17.7125 12.2405 16.4152 13.0854 15.3743C13.9302 14.3334 15.1042 13.6111 16.4141 13.326C17.724 13.0409 19.092 13.2101 20.293 13.8057" stroke="currentColor" stroke-width="1.5" stroke-linecap="round" stroke-linejoin="round"/>
</svg>
