<svg width="19" height="19" viewBox="0 0 19 19" xmlns="http://www.w3.org/2000/svg">
<path fill-rule="evenodd" clip-rule="evenodd" d="M11.5846 12.6731C10.3622 13.6572 8.81213 14.2501 7.12507 14.2501C3.19599 14.2501 0 11.0534 0 7.12507C0 3.19599 3.19599 0 7.12507 0C11.0542 0 14.2501 3.19599 14.2501 7.12507C14.2501 8.7963 13.6675 10.3329 12.6993 11.549L18.7698 17.6496C19.0778 17.9591 19.077 18.4603 18.7667 18.769C18.4555 19.0778 17.9552 19.077 17.6472 18.7667L11.5846 12.6731ZM12.6668 7.12507C12.6668 4.06921 10.1801 1.58335 7.12507 1.58335C4.06921 1.58335 1.58335 4.06921 1.58335 7.12507C1.58335 10.1801 4.06921 12.6668 7.12507 12.6668C10.1801 12.6668 12.6668 10.1801 12.6668 7.12507Z" />
</svg>
