<svg width="29" height="27" viewBox="0 0 29 27" fill="none" xmlns="http://www.w3.org/2000/svg">
<path d="M17.405 10.3764H26.6106C26.6113 9.16705 26.3737 7.96939 25.9114 6.85188C25.4491 5.73437 24.7712 4.71891 23.9163 3.8635C23.0614 3.0081 22.0463 2.32953 20.9291 1.86656C19.8119 1.40359 18.6144 1.1653 17.405 1.1653V10.3764Z" stroke="#231F20" stroke-width="1.5" stroke-linecap="round" stroke-linejoin="round"/>
<path d="M24.5613 20.0778C25.4756 19.1671 26.2004 18.0843 26.6939 16.892C27.1875 15.6996 27.4401 14.4214 27.437 13.1309H17.6144L24.5613 20.0778Z" stroke="#231F20" stroke-width="1.5" stroke-linecap="round" stroke-linejoin="round"/>
<path d="M13.5267 1.00003C11.4698 0.995636 9.44359 1.4989 7.62779 2.46519C5.81198 3.43147 4.2627 4.83092 3.11732 6.53942C1.97194 8.24791 1.26586 10.2127 1.06172 12.2594C0.857576 14.3062 1.16167 16.3717 1.94703 18.2727C2.7324 20.1738 3.97476 21.8517 5.56393 23.1576C7.15311 24.4635 9.03999 25.357 11.0572 25.759C13.0745 26.161 15.1598 26.0589 17.1281 25.4619C19.0965 24.8649 20.8871 23.7914 22.3412 22.3365L13.5267 13.5221V1.00003Z" stroke="#231F20" stroke-width="1.5" stroke-linecap="round" stroke-linejoin="round"/>
</svg>
