<svg fill="none" height="352" viewBox="0 0 2050 352" width="2050" xmlns="http://www.w3.org/2000/svg">
  <g stroke-width="2">
    <path stroke="#e2e2e2" d="m2049 8.59412c-22.5-6.49994-88-14.49994-182.5 2.99998-134.5 50-164 64.5-257 67.9999-102.5 14.5001-195-25.4999-302-14.5-174.74 47.081-196 150.371-313.5 147s-206-103.465-331-92.5c-85.5 7.5-196 206.5-293.5 206.5-77.274 0-118-26-170-52l-198.5-107.5" />
    <path stroke="#8b98a9" d="m1950 2.59412c-19-.00015-77.5 3-113 12.99988-102 42.0001-191 60.9998-283.5 74.9999-77.81 11.7761-233.5-38.8779-302-14.5-170.5 60.6781-196 150.3711-313.5 147.0001s-206-103.465-331-92.5c-85.5 7.5-196 206.5-293.5 206.5-77.274 0-118-26-170-52l-129-77" />
    <path stroke="#00aeef" d="m1970 1.09412c-55.5 4.5-88.56 0-177 26.49998-138.5 41.5-206 62.5891-297.5 68.9999-78.5 5.5-233.5-38.8779-302-14.5-170.5 60.678-196 150.371-313.5 147s-206-103.465-331-92.5c-85.5 7.5-196 206.5-293.5 206.5-77.274 0-118-26-170-52l-70-36" />
    <path stroke="#1c75bc" d="m14.5 297.094c52 26 96.226 53.5 173.5 53.5 97.5 0 208-199 293.5-206.5 125-10.965 213.5 89.129 331 92.5s143-86.322 313.5-147c68.5-24.3779 223.5 20 302 14.5 91.5-6.4108 159-27.4999 297.5-68.9999 88.44-26.49998 168-28.49998 223.5-32.99998" />
  </g>
</svg>